<svg height="100%" stroke-miterlimit="10" style="fill-rule:nonzero;clip-rule:evenodd;stroke-linecap:round;stroke-linejoin:round;" version="1.1" viewBox="0 0 1403 400" width="100%" xml:space="preserve" xmlns="http://www.w3.org/2000/svg" xmlns:xlink="http://www.w3.org/1999/xlink">
<defs>
<linearGradient gradientTransform="matrix(-1.31499e-15 -7.15846 7.15846 -1.31499e-15 1.14011 381.179)" gradientUnits="userSpaceOnUse" id="LinearGradient" x1="4.52592" x2="51.0012" y1="20.7504" y2="30.7327">
<stop offset="0" stop-color="#242424"/>
<stop offset="1" stop-color="#c2cecb"/>
</linearGradient>
<clipPath id="TextBounds">
<rect height="201.128" width="1115.6" x="414.044" y="41.4296"/>
</clipPath>
<linearGradient gradientTransform="matrix(1.16259 0 0 1.16259 -28.7131 -24.7572)" gradientUnits="userSpaceOnUse" id="LinearGradient_2" x1="405.852" x2="2082.54" y1="100.864" y2="290.886">
<stop offset="0" stop-color="#ffffff"/>
<stop offset="1" stop-color="#ff0000"/>
</linearGradient>
</defs>
<g id="Untitled">
<g opacity="1">
<path d="M33.544 313.37L68.9512 27.0035L355.293 62.4137L319.886 348.78L33.544 313.37Z" fill="url(#LinearGradient)" fill-rule="nonzero" opacity="1" stroke="none"/>
<g opacity="1">
<path d="M370.456 294.674C370.456 293.087 370.079 291.494 369.371 290.072L359.597 270.527C358.194 267.722 355.372 265.976 352.234 265.976L281.658 265.976C278.519 265.976 275.698 267.722 274.294 270.527L264.52 290.074C263.812 291.494 263.436 293.087 263.436 294.674L263.436 315.37C263.436 317.842 264.551 320.034 266.28 321.544C264.551 323.055 263.436 325.247 263.436 327.719L263.436 340.067C263.436 342.539 264.551 344.731 266.28 346.241C264.551 347.752 263.436 349.944 263.436 352.416L263.436 364.764C263.436 369.304 267.128 372.996 271.668 372.996L362.224 372.996C366.764 372.996 370.456 369.304 370.456 364.764L370.456 352.416C370.456 349.944 369.34 347.752 367.612 346.241C369.34 344.731 370.456 342.539 370.456 340.067L370.456 327.719C370.456 325.247 369.34 323.055 367.612 321.544C369.34 320.034 370.456 317.842 370.456 315.37L370.456 294.674ZM366.34 364.764C366.34 367.034 364.494 368.88 362.224 368.88L271.668 368.88C269.398 368.88 267.552 367.034 267.552 364.764L267.552 352.416C267.552 350.146 269.398 348.3 271.668 348.3L362.224 348.3C364.494 348.3 366.34 350.146 366.34 352.416L366.34 364.764ZM366.34 340.067C366.34 342.337 364.494 344.183 362.224 344.183L271.668 344.183C269.398 344.183 267.552 342.337 267.552 340.067L267.552 327.719C267.552 325.449 269.398 323.603 271.668 323.603L362.224 323.603C364.494 323.603 366.34 325.449 366.34 327.719L366.34 340.067ZM366.34 315.37C366.34 317.64 364.494 319.486 362.224 319.486L271.668 319.486C269.398 319.486 267.552 317.64 267.552 315.37L267.552 298.906L366.34 298.906L366.34 315.37ZM366.34 294.789L267.552 294.789L267.552 294.674C267.552 293.721 267.776 292.764 268.202 291.912L277.976 272.367C278.678 270.965 280.09 270.093 281.658 270.093L352.232 270.093C353.802 270.093 355.212 270.965 355.913 272.367L365.687 291.91C366.115 292.766 366.34 293.721 366.34 294.674L366.34 294.789Z" fill="#ffffff" fill-rule="nonzero" opacity="1" stroke="none"/>
<path d="M319.004 354.474C317.866 354.474 316.946 355.394 316.946 356.532L316.946 360.648C316.946 361.786 317.866 362.706 319.004 362.706C320.142 362.706 321.062 361.786 321.062 360.648L321.062 356.532C321.062 355.394 320.142 354.474 319.004 354.474ZM308.713 354.474C307.575 354.474 306.655 355.394 306.655 356.532L306.655 360.648C306.655 361.786 307.575 362.706 308.713 362.706C309.852 362.706 310.772 361.786 310.772 360.648L310.772 356.532C310.772 355.394 309.852 354.474 308.713 354.474ZM298.423 354.474C297.285 354.474 296.365 355.394 296.365 356.532L296.365 360.648C296.365 361.786 297.285 362.706 298.423 362.706C299.561 362.706 300.481 361.786 300.481 360.648L300.481 356.532C300.481 355.394 299.561 354.474 298.423 354.474ZM288.133 354.474C286.995 354.474 286.075 355.394 286.075 356.532L286.075 360.648C286.075 361.786 286.995 362.706 288.133 362.706C289.271 362.706 290.191 361.786 290.191 360.648L290.191 356.532C290.191 355.394 289.271 354.474 288.133 354.474ZM277.842 354.474C276.704 354.474 275.784 355.394 275.784 356.532L275.784 360.648C275.784 361.786 276.704 362.706 277.842 362.706C278.98 362.706 279.9 361.786 279.9 360.648L279.9 356.532C279.9 355.394 278.98 354.474 277.842 354.474ZM351.933 352.416C348.529 352.416 345.759 355.186 345.759 358.59C345.759 361.994 348.529 364.764 351.933 364.764C355.337 364.764 358.107 361.994 358.107 358.59C358.107 355.186 355.337 352.416 351.933 352.416ZM351.933 361.163C350.513 361.163 349.361 360.01 349.361 358.59C349.361 357.17 350.513 356.017 351.933 356.017C353.353 356.017 354.506 357.17 354.506 358.59C354.506 360.01 353.353 361.163 351.933 361.163ZM339.585 356.532L327.236 356.532C326.098 356.532 325.178 357.452 325.178 358.59C325.178 359.728 326.098 360.648 327.236 360.648L339.585 360.648C340.723 360.648 341.643 359.728 341.643 358.59C341.643 357.452 340.723 356.532 339.585 356.532ZM319.004 329.777C317.866 329.777 316.946 330.697 316.946 331.835L316.946 335.951C316.946 337.089 317.866 338.009 319.004 338.009C320.142 338.009 321.062 337.089 321.062 335.951L321.062 331.835C321.062 330.697 320.142 329.777 319.004 329.777ZM308.713 329.777C307.575 329.777 306.655 330.697 306.655 331.835L306.655 335.951C306.655 337.089 307.575 338.009 308.713 338.009C309.852 338.009 310.772 337.089 310.772 335.951L310.772 331.835C310.772 330.697 309.852 329.777 308.713 329.777ZM298.423 329.777C297.285 329.777 296.365 330.697 296.365 331.835L296.365 335.951C296.365 337.089 297.285 338.009 298.423 338.009C299.561 338.009 300.481 337.089 300.481 335.951L300.481 331.835C300.481 330.697 299.561 329.777 298.423 329.777ZM288.133 329.777C286.995 329.777 286.075 330.697 286.075 331.835L286.075 335.951C286.075 337.089 286.995 338.009 288.133 338.009C289.271 338.009 290.191 337.089 290.191 335.951L290.191 331.835C290.191 330.697 289.271 329.777 288.133 329.777ZM277.842 329.777C276.704 329.777 275.784 330.697 275.784 331.835L275.784 335.951C275.784 337.089 276.704 338.009 277.842 338.009C278.98 338.009 279.9 337.089 279.9 335.951L279.9 331.835C279.9 330.697 278.98 329.777 277.842 329.777ZM351.933 327.719C348.529 327.719 345.759 330.489 345.759 333.893C345.759 337.297 348.529 340.067 351.933 340.067C355.337 340.067 358.107 337.297 358.107 333.893C358.107 330.489 355.337 327.719 351.933 327.719ZM351.933 336.379C350.56 336.379 349.447 335.264 349.447 333.893C349.447 332.52 350.562 331.407 351.933 331.407C353.304 331.407 354.419 332.522 354.419 333.893C354.419 335.266 353.306 336.379 351.933 336.379ZM339.585 331.835L327.236 331.835C326.098 331.835 325.178 332.755 325.178 333.893C325.178 335.031 326.098 335.951 327.236 335.951L339.585 335.951C340.723 335.951 341.643 335.031 341.643 333.893C341.643 332.755 340.723 331.835 339.585 331.835ZM319.004 313.312C320.142 313.312 321.062 312.392 321.062 311.254L321.062 307.138C321.062 306 320.142 305.08 319.004 305.08C317.866 305.08 316.946 306 316.946 307.138L316.946 311.254C316.946 312.392 317.866 313.312 319.004 313.312ZM308.713 313.312C309.852 313.312 310.772 312.392 310.772 311.254L310.772 307.138C310.772 306 309.852 305.08 308.713 305.08C307.575 305.08 306.655 306 306.655 307.138L306.655 311.254C306.655 312.392 307.575 313.312 308.713 313.312ZM298.423 313.312C299.561 313.312 300.481 312.392 300.481 311.254L300.481 307.138C300.481 306 299.561 305.08 298.423 305.08C297.285 305.08 296.365 306 296.365 307.138L296.365 311.254C296.365 312.392 297.285 313.312 298.423 313.312ZM288.133 313.312C289.271 313.312 290.191 312.392 290.191 311.254L290.191 307.138C290.191 306 289.271 305.08 288.133 305.08C286.995 305.08 286.075 306 286.075 307.138L286.075 311.254C286.075 312.392 286.995 313.312 288.133 313.312ZM277.842 313.312C278.98 313.312 279.9 312.392 279.9 311.254L279.9 307.138C279.9 306 278.98 305.08 277.842 305.08C276.704 305.08 275.784 306 275.784 307.138L275.784 311.254C275.784 312.392 276.704 313.312 277.842 313.312ZM351.933 315.37C355.337 315.37 358.107 312.6 358.107 309.196C358.107 305.792 355.337 303.022 351.933 303.022C348.529 303.022 345.759 305.792 345.759 309.196C345.759 312.6 348.529 315.37 351.933 315.37ZM351.933 306.71C353.306 306.71 354.419 307.825 354.419 309.196C354.419 310.569 353.304 311.682 351.933 311.682C350.562 311.682 349.447 310.569 349.447 309.196C349.447 307.823 350.56 306.71 351.933 306.71ZM327.236 311.254L339.585 311.254C340.723 311.254 341.643 310.334 341.643 309.196C341.643 308.058 340.723 307.138 339.585 307.138L327.236 307.138C326.098 307.138 325.178 308.058 325.178 309.196C325.178 310.334 326.098 311.254 327.236 311.254ZM335.469 274.209L281.958 274.209C280.82 274.209 279.9 275.129 279.9 276.267C279.9 277.405 280.82 278.325 281.958 278.325L335.469 278.325C336.607 278.325 337.527 277.405 337.527 276.267C337.527 275.129 336.607 274.209 335.469 274.209ZM351.933 274.209L343.701 274.209C342.563 274.209 341.643 275.129 341.643 276.267C341.643 277.405 342.563 278.325 343.701 278.325L351.933 278.325C353.071 278.325 353.991 277.405 353.991 276.267C353.991 275.129 353.071 274.209 351.933 274.209Z" fill="#ffffff" fill-rule="nonzero" opacity="1" stroke="none"/>
</g>
<path d="M138.987 231.127L151.187 132.455L249.85 144.656L237.65 243.328L138.987 231.127Z" fill="#000000" fill-rule="nonzero" opacity="1" stroke="none"/>
</g>
<g fill="url(#LinearGradient_2)" opacity="1" stroke="none">
<path clip-path="url(#TextBounds)" d="M522.711 197.43L498.557 197.43L467.563 160.034L446.683 160.034L446.683 197.43L425.803 197.43L425.803 94.7739L471.128 94.7739C483.303 94.7739 492.797 97.6113 499.612 103.286C506.426 108.961 509.833 116.891 509.833 127.077C509.833 134.691 507.881 141.106 503.977 146.32C500.072 151.534 494.943 154.966 488.589 156.615L522.711 197.43ZM446.683 142.719L470.401 142.719C482.624 142.719 488.735 137.553 488.735 127.222C488.735 122.42 487.074 118.686 483.751 116.018C480.429 113.35 475.615 112.017 469.31 112.017L446.683 112.017L446.683 142.719Z"/>
<path clip-path="url(#TextBounds)" d="M578.619 119.801C590.599 119.801 600.251 123.318 607.575 130.351C614.899 137.383 618.561 147.132 618.561 159.598C618.561 172.063 614.899 181.812 607.575 188.845C600.251 195.878 590.599 199.394 578.619 199.394C566.638 199.394 557.011 195.878 549.735 188.845C542.46 181.812 538.822 172.063 538.822 159.598C538.822 147.084 542.46 137.323 549.735 130.314C557.011 123.306 566.638 119.801 578.619 119.801ZM578.619 182.224C584.39 182.224 589.01 180.175 592.478 176.076C595.946 171.978 597.68 166.485 597.68 159.598C597.68 152.662 595.97 147.157 592.551 143.082C589.132 139.008 584.487 136.971 578.619 136.971C572.556 136.971 567.887 138.948 564.614 142.901C561.34 146.854 559.703 152.419 559.703 159.598C559.703 166.582 561.352 172.099 564.65 176.149C567.948 180.199 572.604 182.224 578.619 182.224Z"/>
<path clip-path="url(#TextBounds)" d="M714.774 156.178L642.82 156.178L642.82 140.973L714.774 140.973L714.774 156.178Z"/>
<path clip-path="url(#TextBounds)" d="M817.753 119.801C806.646 113.253 795.224 109.979 783.486 109.979C776.841 109.979 771.555 111.059 767.626 113.217C763.697 115.375 761.733 118.176 761.733 121.62C761.733 123.851 762.97 125.816 765.443 127.513C767.917 129.211 774.319 131.078 784.65 133.115C793.478 134.91 800.753 136.777 806.477 138.717C812.2 140.657 817.147 143.822 821.318 148.212C825.49 152.601 827.575 158.579 827.575 166.145C827.575 176.088 823.319 184.116 814.807 190.227C806.295 196.338 795.709 199.394 783.05 199.394C766.995 199.394 751.838 195.708 737.579 188.335L743.69 171.82C757.95 178.659 770.876 182.079 782.468 182.079C789.598 182.079 795.357 180.757 799.747 178.113C804.136 175.47 806.331 171.917 806.331 167.455C806.331 164.69 804.985 162.314 802.293 160.325C799.601 158.337 792.75 156.275 781.74 154.141C773.107 152.443 766.05 150.661 760.569 148.794C755.088 146.926 750.359 143.858 746.382 139.59C742.405 135.322 740.416 129.477 740.416 122.057C740.416 113.326 744.296 106.269 752.057 100.885C759.817 95.5014 770.294 92.8095 783.486 92.8095C797.746 92.8095 811.254 96.2532 824.01 103.141L817.753 119.801Z"/>
<path clip-path="url(#TextBounds)" d="M893.741 196.557C889.473 198.448 884.865 199.394 879.918 199.394C871.818 199.394 865.646 197.248 861.402 192.955C857.158 188.663 855.036 182.467 855.036 174.367L855.036 137.262L844.632 137.262L844.632 121.62L855.036 121.62L855.036 98.0478L875.116 98.0478L875.116 121.62L889.74 121.62L889.74 137.262L875.116 137.262L875.116 171.384C875.116 174.876 875.795 177.604 877.153 179.569C878.511 181.533 880.33 182.515 882.61 182.515C885.374 182.515 887.994 181.982 890.467 180.914L893.741 196.557Z"/>
<path clip-path="url(#TextBounds)" d="M977.95 197.43L956.852 197.43C955.445 194.277 954.742 191.391 954.742 188.772C948 195.853 939.9 199.394 930.442 199.394C923.506 199.394 918.049 197.333 914.072 193.21C910.095 189.087 908.106 183.631 908.106 176.84C908.106 171.893 909.428 167.588 912.072 163.926C914.715 160.264 918.644 157.318 923.858 155.087C929.072 152.856 935.316 151.449 942.592 150.867L954.887 149.921L954.887 148.539C954.887 139.906 950.158 135.589 940.7 135.589C937.79 135.589 933.934 136.219 929.132 137.48C924.331 138.741 920.062 140.245 916.328 141.991L911.526 128.022C916.231 125.646 921.651 123.681 927.786 122.129C933.922 120.577 939.366 119.801 944.12 119.801C954.208 119.801 961.872 122.251 967.11 127.149C972.348 132.048 974.967 139.226 974.967 148.684L974.967 179.387C974.967 186.517 975.962 192.531 977.95 197.43ZM954.887 174.512L954.887 161.998C946.448 162.872 941.222 163.478 939.209 163.817C937.196 164.157 935.098 164.909 932.916 166.073C930.733 167.237 929.108 168.68 928.041 170.402C926.974 172.123 926.44 174.076 926.44 176.258C926.44 178.489 927.204 180.369 928.732 181.897C930.26 183.424 932.333 184.188 934.953 184.188C942.277 184.188 948.921 180.963 954.887 174.512Z"/>
<path clip-path="url(#TextBounds)" d="M1046.23 196.557C1041.96 198.448 1037.35 199.394 1032.4 199.394C1024.3 199.394 1018.13 197.248 1013.89 192.955C1009.64 188.663 1007.52 182.467 1007.52 174.367L1007.52 137.262L997.117 137.262L997.117 121.62L1007.52 121.62L1007.52 98.0478L1027.6 98.0478L1027.6 121.62L1042.22 121.62L1042.22 137.262L1027.6 137.262L1027.6 171.384C1027.6 174.876 1028.28 177.604 1029.64 179.569C1031 181.533 1032.82 182.515 1035.09 182.515C1037.86 182.515 1040.48 181.982 1042.95 180.914L1046.23 196.557Z"/>
<path clip-path="url(#TextBounds)" d="M1135.24 197.43L1115.08 197.43L1115.08 188.19C1108.78 195.562 1100.65 199.248 1090.71 199.248C1082.81 199.248 1076.52 196.896 1071.87 192.191C1067.21 187.487 1064.88 180.939 1064.88 172.548L1064.88 121.62L1085.04 121.62L1085.04 166.145C1085.04 176.865 1088.89 182.224 1096.6 182.224C1103.49 182.224 1109.65 178.562 1115.08 171.238L1115.08 121.62L1135.24 121.62L1135.24 197.43Z"/>
<path clip-path="url(#TextBounds)" d="M1224.03 139.736C1214.81 136.292 1205.87 134.57 1197.18 134.57C1187.87 134.57 1183.21 136.51 1183.21 140.391C1183.21 142.331 1184.23 143.895 1186.27 145.083C1188.31 146.271 1192.55 147.617 1199 149.121C1211.9 152.322 1220.51 155.863 1224.83 159.743C1229.15 163.623 1231.3 168.328 1231.3 173.857C1231.3 190.882 1219.11 199.394 1194.71 199.394C1183.6 199.394 1172.71 197.357 1162.04 193.283L1165.61 177.641C1174.77 182.103 1184.21 184.334 1193.91 184.334C1205.65 184.334 1211.52 181.885 1211.52 176.986C1211.52 175.094 1210.17 173.469 1207.48 172.111C1204.79 170.753 1200.26 169.298 1193.91 167.746C1183.04 165.272 1175.34 162.12 1170.81 158.288C1166.27 154.456 1164.01 149.727 1164.01 144.101C1164.01 136.68 1166.88 130.775 1172.63 126.385C1178.38 121.996 1186.51 119.801 1197.04 119.801C1207.13 119.801 1217.31 121.45 1227.59 124.748L1224.03 139.736Z"/>
</g>
<g opacity="1">
<path d="M452.021 266.973L446.764 266.973L441.588 254.139L426.38 254.139L421.258 266.973L416.055 266.973L431.69 229.326L436.386 229.326L452.021 266.973ZM440.094 249.977L434.038 235.169L427.981 249.977L440.094 249.977Z" fill="#ffffff" fill-rule="nonzero" opacity="1" stroke="none"/>
<g opacity="1">
<path d="M494.336 236.584C492.895 235.499 491.094 234.6 488.933 233.889C486.772 233.177 484.731 232.822 482.81 232.822C479.893 232.822 477.563 233.36 475.82 234.436C474.076 235.512 473.205 236.886 473.205 238.558C473.205 239.767 473.774 240.844 474.912 241.786C476.051 242.729 478.897 243.814 483.45 245.041C486.474 245.859 488.924 246.638 490.801 247.376C492.677 248.114 494.283 249.181 495.617 250.578C496.951 251.974 497.618 253.775 497.618 255.98C497.618 259.662 496.159 262.535 493.242 264.598C490.325 266.661 486.794 267.693 482.65 267.693C477.171 267.693 472.182 266.51 467.682 264.145L469.149 259.929C473.703 262.295 478.132 263.478 482.436 263.478C485.478 263.478 487.968 262.837 489.907 261.557C491.846 260.276 492.815 258.604 492.815 256.541C492.815 255.242 492.344 254.162 491.401 253.299C490.458 252.436 489.289 251.747 487.893 251.231C486.496 250.715 484.589 250.119 482.17 249.444C479.199 248.643 476.802 247.878 474.979 247.149C473.156 246.42 471.604 245.375 470.323 244.014C469.043 242.653 468.402 240.888 468.402 238.718C468.402 235.676 469.701 233.231 472.298 231.381C474.895 229.531 478.399 228.606 482.81 228.606C484.927 228.606 487.203 228.948 489.64 229.633C492.077 230.318 494.3 231.274 496.31 232.501L494.336 236.584Z" fill="#ff7c7c" fill-rule="nonzero" opacity="1" stroke="#ff7c7c" stroke-linecap="round" stroke-linejoin="round" stroke-width="3"/>
<path d="M528.994 264.465C525.063 266.617 521.221 267.693 517.468 267.693C512.932 267.693 509.393 266.386 506.849 263.771C504.306 261.156 503.034 257.581 503.034 253.045C503.034 248.705 504.212 245.197 506.569 242.52C508.926 239.843 512.114 238.505 516.134 238.505C519.745 238.505 522.697 239.745 524.992 242.226C527.286 244.708 528.434 248.021 528.434 252.165L528.434 253.419L507.836 253.419C507.979 256.745 508.872 259.289 510.518 261.05C512.163 262.811 514.462 263.691 517.415 263.691C520.883 263.691 524.289 262.686 527.633 260.676L528.994 264.465ZM523.524 249.817C523.293 247.558 522.475 245.762 521.07 244.428C519.665 243.094 518.002 242.427 516.081 242.427C513.964 242.427 512.194 243.071 510.771 244.361C509.348 245.65 508.423 247.469 507.996 249.817L523.524 249.817Z" fill="#ff7c7c" fill-rule="nonzero" opacity="1" stroke="#ff7c7c" stroke-linecap="round" stroke-linejoin="round" stroke-width="3"/>
<path d="M573.15 266.973L568.508 266.973L568.508 249.257C568.508 247.033 568.068 245.361 567.187 244.241C566.307 243.12 564.995 242.56 563.252 242.56C562.149 242.56 560.971 242.907 559.717 243.601C558.463 244.294 557.329 245.255 556.315 246.482C556.35 246.784 556.368 247.309 556.368 248.056L556.368 266.973L551.726 266.973L551.726 249.257C551.726 247.033 551.312 245.361 550.485 244.241C549.658 243.12 548.417 242.56 546.763 242.56C544.291 242.56 541.898 244.072 539.586 247.096L539.586 266.973L534.944 266.973L534.944 239.172L539.586 239.172L539.586 243.094C542.023 240.034 544.833 238.505 548.017 238.505C551.77 238.505 554.296 240.052 555.595 243.147C558.138 240.052 561.108 238.505 564.506 238.505C567.281 238.505 569.415 239.323 570.909 240.959C572.403 242.596 573.15 244.961 573.15 248.056L573.15 266.973Z" fill="#ff7c7c" fill-rule="nonzero" opacity="1" stroke="#ff7c7c" stroke-linecap="round" stroke-linejoin="round" stroke-width="3"/>
<path d="M585.157 266.973L580.514 266.973L580.514 239.172L585.157 239.172L585.157 266.973ZM582.809 227.299C583.591 227.299 584.263 227.579 584.823 228.139C585.383 228.699 585.664 229.371 585.664 230.154C585.664 230.901 585.383 231.55 584.823 232.101C584.263 232.653 583.591 232.928 582.809 232.928C582.062 232.928 581.412 232.653 580.861 232.101C580.31 231.55 580.034 230.901 580.034 230.154C580.034 229.353 580.305 228.677 580.848 228.126C581.39 227.574 582.044 227.299 582.809 227.299Z" fill="#ff7c7c" fill-rule="nonzero" opacity="1" stroke="#ff7c7c" stroke-linecap="round" stroke-linejoin="round" stroke-width="3"/>
<path d="M618.08 249.604L592.494 249.604L592.494 245.762L618.08 245.762L618.08 249.604Z" fill="#ff7c7c" fill-rule="nonzero" opacity="1" stroke="#ff7c7c" stroke-linecap="round" stroke-linejoin="round" stroke-width="3"/>
<path d="M660.156 266.973L654.019 266.973L641.079 251.631L630.967 251.631L630.967 266.973L626.058 266.973L626.058 229.326L641.239 229.326C645.721 229.326 649.221 230.282 651.738 232.195C654.255 234.107 655.513 236.833 655.513 240.372C655.513 243.022 654.695 245.268 653.059 247.109C651.422 248.95 649.252 250.217 646.549 250.911L660.156 266.973ZM630.967 247.469L640.972 247.469C643.978 247.469 646.304 246.86 647.949 245.642C649.595 244.423 650.417 242.685 650.417 240.426C650.417 235.801 647.144 233.489 640.599 233.489L630.967 233.489L630.967 247.469Z" fill="#ff7c7c" fill-rule="nonzero" opacity="1" stroke="#ff7c7c" stroke-linecap="round" stroke-linejoin="round" stroke-width="3"/>
<path d="M689.291 264.465C685.36 266.617 681.518 267.693 677.765 267.693C673.229 267.693 669.69 266.386 667.146 263.771C664.602 261.156 663.331 257.581 663.331 253.045C663.331 248.705 664.509 245.197 666.866 242.52C669.223 239.843 672.411 238.505 676.431 238.505C680.042 238.505 682.994 239.745 685.289 242.226C687.583 244.708 688.731 248.021 688.731 252.165L688.731 253.419L668.133 253.419C668.275 256.745 669.169 259.289 670.815 261.05C672.46 262.811 674.759 263.691 677.711 263.691C681.18 263.691 684.586 262.686 687.93 260.676L689.291 264.465ZM683.821 249.817C683.59 247.558 682.772 245.762 681.367 244.428C679.962 243.094 678.298 242.427 676.377 242.427C674.261 242.427 672.491 243.071 671.068 244.361C669.645 245.65 668.72 247.469 668.293 249.817L683.821 249.817Z" fill="#ff7c7c" fill-rule="nonzero" opacity="1" stroke="#ff7c7c" stroke-linecap="round" stroke-linejoin="round" stroke-width="3"/>
<path d="M699.936 260.729C699.936 262.704 700.523 263.691 701.697 263.691C702.213 263.691 702.631 263.629 702.951 263.504L703.672 266.813C702.587 267.24 701.511 267.453 700.443 267.453C698.593 267.453 697.273 266.937 696.481 265.905C695.69 264.874 695.294 263.3 695.294 261.183L695.294 227.219L699.936 227.219L699.936 260.729Z" fill="#ff7c7c" fill-rule="nonzero" opacity="1" stroke="#ff7c7c" stroke-linecap="round" stroke-linejoin="round" stroke-width="3"/>
<path d="M730.566 239.172L719.306 267.453C717.937 270.886 716.452 273.558 714.851 275.47C713.25 277.383 710.982 278.339 708.047 278.339C706.607 278.339 705.041 277.974 703.352 277.245L704.339 273.536C705.993 274.07 707.265 274.337 708.154 274.337C709.63 274.337 710.951 273.714 712.116 272.469C713.281 271.224 714.291 269.356 715.144 266.866L704.099 239.172L708.874 239.172L717.332 261.236L725.79 239.172L730.566 239.172Z" fill="#ff7c7c" fill-rule="nonzero" opacity="1" stroke="#ff7c7c" stroke-linecap="round" stroke-linejoin="round" stroke-width="3"/>
<path d="M758.847 266.973L753.831 266.973C753.547 266.528 753.302 265.897 753.097 265.078C752.893 264.26 752.791 263.584 752.791 263.051C749.5 266.146 745.88 267.693 741.932 267.693C739.317 267.693 737.196 267.013 735.568 265.652C733.941 264.291 733.127 262.401 733.127 259.982C733.127 258.061 733.612 256.438 734.581 255.113C735.551 253.788 737.009 252.752 738.957 252.005C740.904 251.258 743.381 250.787 746.387 250.591L752.684 250.191L752.684 249.31C752.684 246.713 752.168 244.908 751.136 243.894C750.105 242.88 748.29 242.373 745.694 242.373C744.448 242.373 742.905 242.644 741.065 243.187C739.224 243.729 737.672 244.356 736.409 245.068L735.048 241.519C736.542 240.63 738.37 239.905 740.531 239.345C742.692 238.785 744.671 238.505 746.467 238.505C750.167 238.505 752.902 239.341 754.672 241.013C756.441 242.685 757.326 245.237 757.326 248.67L757.326 260.356C757.326 263.255 757.833 265.461 758.847 266.973ZM752.684 258.995L752.684 253.686C748.7 253.917 746.089 254.099 744.853 254.233C743.617 254.366 742.412 254.655 741.238 255.1C740.064 255.545 739.175 256.149 738.57 256.914C737.965 257.679 737.663 258.631 737.663 259.769C737.663 260.943 738.116 261.89 739.023 262.61C739.931 263.331 741.096 263.691 742.519 263.691C744.333 263.691 746.192 263.26 748.095 262.397C749.998 261.534 751.528 260.4 752.684 258.995Z" fill="#ff7c7c" fill-rule="nonzero" opacity="1" stroke="#ff7c7c" stroke-linecap="round" stroke-linejoin="round" stroke-width="3"/>
<path d="M769.733 242.56C772.01 239.856 774.838 238.505 778.217 238.505C781.454 238.505 784.158 239.799 786.328 242.387C788.498 244.975 789.583 248.359 789.583 252.539C789.583 257.181 788.494 260.867 786.315 263.598C784.136 266.328 781.383 267.693 778.057 267.693C774.66 267.693 771.885 266.377 769.733 263.744L769.733 266.973L765.09 266.973L765.09 227.299L769.733 227.299L769.733 242.56ZM769.733 247.016L769.733 258.889C770.444 260.187 771.471 261.294 772.814 262.21C774.157 263.126 775.54 263.584 776.963 263.584C779.4 263.584 781.312 262.65 782.7 260.783C784.087 258.915 784.781 256.3 784.781 252.939C784.781 249.63 784.096 247.073 782.726 245.268C781.357 243.463 779.436 242.56 776.963 242.56C775.718 242.56 774.442 242.974 773.135 243.801C771.827 244.628 770.693 245.699 769.733 247.016Z" fill="#ff7c7c" fill-rule="nonzero" opacity="1" stroke="#ff7c7c" stroke-linecap="round" stroke-linejoin="round" stroke-width="3"/>
<path d="M800.175 260.729C800.175 262.704 800.762 263.691 801.936 263.691C802.452 263.691 802.87 263.629 803.19 263.504L803.911 266.813C802.826 267.24 801.749 267.453 800.682 267.453C798.832 267.453 797.512 266.937 796.72 265.905C795.929 264.874 795.533 263.3 795.533 261.183L795.533 227.219L800.175 227.219L800.175 260.729Z" fill="#ff7c7c" fill-rule="nonzero" opacity="1" stroke="#ff7c7c" stroke-linecap="round" stroke-linejoin="round" stroke-width="3"/>
<path d="M832.059 264.465C828.128 266.617 824.286 267.693 820.533 267.693C815.997 267.693 812.457 266.386 809.914 263.771C807.37 261.156 806.098 257.581 806.098 253.045C806.098 248.705 807.277 245.197 809.634 242.52C811.99 239.843 815.179 238.505 819.199 238.505C822.809 238.505 825.762 239.745 828.057 242.226C830.351 244.708 831.498 248.021 831.498 252.165L831.498 253.419L810.901 253.419C811.043 256.745 811.937 259.289 813.582 261.05C815.228 262.811 817.527 263.691 820.479 263.691C823.948 263.691 827.354 262.686 830.698 260.676L832.059 264.465ZM826.589 249.817C826.358 247.558 825.54 245.762 824.134 244.428C822.729 243.094 821.066 242.427 819.145 242.427C817.029 242.427 815.259 243.071 813.836 244.361C812.413 245.65 811.488 247.469 811.061 249.817L826.589 249.817Z" fill="#ff7c7c" fill-rule="nonzero" opacity="1" stroke="#ff7c7c" stroke-linecap="round" stroke-linejoin="round" stroke-width="3"/>
</g>
<g opacity="1">
<path d="M871.733 244.961C868.904 243.271 866.147 242.427 863.462 242.427C861.327 242.427 859.691 242.756 858.552 243.414C857.414 244.072 856.845 244.988 856.845 246.162C856.845 246.998 857.223 247.687 857.979 248.23C858.735 248.772 859.94 249.284 861.594 249.764L865.276 250.804C868.816 251.8 871.23 252.934 872.52 254.206C873.809 255.478 874.454 257.092 874.454 259.049C874.454 261.752 873.445 263.869 871.426 265.399C869.407 266.928 866.681 267.693 863.248 267.693C859.211 267.693 855.511 266.759 852.149 264.892L853.536 261.236C856.685 262.908 859.833 263.744 862.981 263.744C867.606 263.744 869.918 262.366 869.918 259.609C869.918 258.542 869.438 257.643 868.478 256.914C867.517 256.185 865.445 255.384 862.261 254.513C859.7 253.801 857.948 253.254 857.005 252.872C856.062 252.49 855.217 251.983 854.47 251.351C853.723 250.72 853.176 250.013 852.829 249.23C852.483 248.448 852.309 247.567 852.309 246.589C852.309 244.17 853.27 242.218 855.191 240.732C857.112 239.247 859.869 238.505 863.462 238.505C864.974 238.505 866.628 238.749 868.424 239.238C870.221 239.727 871.83 240.408 873.253 241.279L871.733 244.961Z" fill="#ffffff" fill-rule="nonzero" opacity="1" stroke="none"/>
<path d="M904.95 264.465C901.019 266.617 897.177 267.693 893.424 267.693C888.888 267.693 885.349 266.386 882.805 263.771C880.262 261.156 878.99 257.581 878.99 253.045C878.99 248.705 880.168 245.197 882.525 242.52C884.882 239.843 888.07 238.505 892.09 238.505C895.701 238.505 898.653 239.745 900.948 242.226C903.242 244.708 904.39 248.021 904.39 252.165L904.39 253.419L883.792 253.419C883.935 256.745 884.828 259.289 886.474 261.05C888.119 262.811 890.418 263.691 893.371 263.691C896.839 263.691 900.245 262.686 903.589 260.676L904.95 264.465ZM899.48 249.817C899.249 247.558 898.431 245.762 897.026 244.428C895.621 243.094 893.958 242.427 892.037 242.427C889.92 242.427 888.15 243.071 886.727 244.361C885.304 245.65 884.379 247.469 883.952 249.817L899.48 249.817Z" fill="#ffffff" fill-rule="nonzero" opacity="1" stroke="none"/>
<path d="M925.867 239.598L924.507 243.574C923.689 243.076 922.942 242.827 922.266 242.827C921.287 242.827 920.354 243.298 919.464 244.241C918.575 245.184 917.699 246.571 916.836 248.403C915.973 250.235 915.542 251.16 915.542 251.178L915.542 266.973L910.9 266.973L910.9 239.172L915.275 239.172L915.275 245.602C916.609 242.845 917.801 240.973 918.851 239.985C919.9 238.998 921.127 238.505 922.532 238.505C923.866 238.505 924.978 238.869 925.867 239.598Z" fill="#ffffff" fill-rule="nonzero" opacity="1" stroke="none"/>
<path d="M952.281 239.172L941.182 266.973L936.913 266.973L925.814 239.172L930.59 239.172L939.048 261.236L947.505 239.172L952.281 239.172Z" fill="#ffffff" fill-rule="nonzero" opacity="1" stroke="none"/>
<path d="M961.113 266.973L956.47 266.973L956.47 239.172L961.113 239.172L961.113 266.973ZM958.765 227.299C959.547 227.299 960.219 227.579 960.779 228.139C961.339 228.699 961.619 229.371 961.619 230.154C961.619 230.901 961.339 231.55 960.779 232.101C960.219 232.653 959.547 232.928 958.765 232.928C958.018 232.928 957.368 232.653 956.817 232.101C956.266 231.55 955.99 230.901 955.99 230.154C955.99 229.353 956.261 228.677 956.804 228.126C957.346 227.574 958 227.299 958.765 227.299Z" fill="#ffffff" fill-rule="nonzero" opacity="1" stroke="none"/>
<path d="M967.036 253.045C967.036 248.456 968.352 244.886 970.984 242.333C973.617 239.781 976.89 238.505 980.803 238.505C984.111 238.505 987.259 239.376 990.248 241.119L988.887 244.855C986.308 243.271 983.631 242.48 980.856 242.48C978.224 242.48 976.063 243.44 974.373 245.361C972.683 247.282 971.838 249.844 971.838 253.045C971.838 256.3 972.701 258.889 974.426 260.81C976.151 262.731 978.313 263.691 980.91 263.691C983.56 263.691 986.343 262.784 989.261 260.97L990.701 264.625C987.606 266.67 984.342 267.693 980.91 267.693C976.801 267.693 973.461 266.355 970.891 263.678C968.321 261.001 967.036 257.457 967.036 253.045Z" fill="#ffffff" fill-rule="nonzero" opacity="1" stroke="none"/>
<path d="M1020.32 264.465C1016.39 266.617 1012.54 267.693 1008.79 267.693C1004.26 267.693 1000.72 266.386 998.172 263.771C995.628 261.156 994.357 257.581 994.357 253.045C994.357 248.705 995.535 245.197 997.892 242.52C1000.25 239.843 1003.44 238.505 1007.46 238.505C1011.07 238.505 1014.02 239.745 1016.31 242.226C1018.61 244.708 1019.76 248.021 1019.76 252.165L1019.76 253.419L999.159 253.419C999.301 256.745 1000.2 259.289 1001.84 261.05C1003.49 262.811 1005.78 263.691 1008.74 263.691C1012.21 263.691 1015.61 262.686 1018.96 260.676L1020.32 264.465ZM1014.85 249.817C1014.62 247.558 1013.8 245.762 1012.39 244.428C1010.99 243.094 1009.32 242.427 1007.4 242.427C1005.29 242.427 1003.52 243.071 1002.09 244.361C1000.67 245.65 999.746 247.469 999.319 249.817L1014.85 249.817Z" fill="#ffffff" fill-rule="nonzero" opacity="1" stroke="none"/>
</g>
<g opacity="1">
<path d="M1064.63 239.172L1053.37 267.453C1052 270.886 1050.52 273.558 1048.92 275.47C1047.32 277.383 1045.05 278.339 1042.11 278.339C1040.67 278.339 1039.11 277.974 1037.42 277.245L1038.41 273.536C1040.06 274.07 1041.33 274.337 1042.22 274.337C1043.7 274.337 1045.02 273.714 1046.18 272.469C1047.35 271.224 1048.36 269.356 1049.21 266.866L1038.17 239.172L1042.94 239.172L1051.4 261.236L1059.86 239.172L1064.63 239.172Z" fill="#ffffff" fill-rule="nonzero" opacity="1" stroke="none"/>
<path d="M1080.29 238.505C1084.3 238.505 1087.47 239.839 1089.81 242.507C1092.15 245.175 1093.31 248.705 1093.31 253.099C1093.31 257.492 1092.15 261.023 1089.81 263.691C1087.47 266.359 1084.3 267.693 1080.29 267.693C1076.27 267.693 1073.1 266.364 1070.76 263.704C1068.42 261.045 1067.25 257.51 1067.25 253.099C1067.25 248.67 1068.42 245.13 1070.76 242.48C1073.1 239.83 1076.27 238.505 1080.29 238.505ZM1080.29 263.584C1082.82 263.584 1084.82 262.57 1086.3 260.543C1087.77 258.515 1088.51 256.034 1088.51 253.099C1088.51 249.933 1087.8 247.394 1086.36 245.482C1084.93 243.569 1082.91 242.613 1080.29 242.613C1077.66 242.613 1075.63 243.565 1074.2 245.468C1072.77 247.371 1072.05 249.915 1072.05 253.099C1072.05 256.051 1072.79 258.537 1074.26 260.556C1075.74 262.575 1077.75 263.584 1080.29 263.584Z" fill="#ffffff" fill-rule="nonzero" opacity="1" stroke="none"/>
<path d="M1122.1 266.973L1117.46 266.973L1117.46 263.104C1114.56 266.163 1111.48 267.693 1108.23 267.693C1105.38 267.693 1103.14 266.862 1101.51 265.198C1099.87 263.535 1099.05 261.174 1099.05 258.115L1099.05 239.172L1103.69 239.172L1103.69 256.914C1103.69 259.013 1104.21 260.658 1105.25 261.85C1106.29 263.042 1107.7 263.638 1109.48 263.638C1112.28 263.638 1114.93 262.126 1117.46 259.102L1117.46 239.172L1122.1 239.172L1122.1 266.973Z" fill="#ffffff" fill-rule="nonzero" opacity="1" stroke="none"/>
</g>
<g opacity="1">
<path d="M1143.21 253.045C1143.21 248.456 1144.52 244.886 1147.16 242.333C1149.79 239.781 1153.06 238.505 1156.97 238.505C1160.28 238.505 1163.43 239.376 1166.42 241.119L1165.06 244.855C1162.48 243.271 1159.8 242.48 1157.03 242.48C1154.4 242.48 1152.23 243.44 1150.54 245.361C1148.85 247.282 1148.01 249.844 1148.01 253.045C1148.01 256.3 1148.87 258.889 1150.6 260.81C1152.32 262.731 1154.48 263.691 1157.08 263.691C1159.73 263.691 1162.52 262.784 1165.43 260.97L1166.87 264.625C1163.78 266.67 1160.51 267.693 1157.08 267.693C1152.97 267.693 1149.63 266.355 1147.06 263.678C1144.49 261.001 1143.21 257.457 1143.21 253.045Z" fill="#ffffff" fill-rule="nonzero" opacity="1" stroke="none"/>
<path d="M1196.2 266.973L1191.18 266.973C1190.89 266.528 1190.65 265.897 1190.45 265.078C1190.24 264.26 1190.14 263.584 1190.14 263.051C1186.85 266.146 1183.23 267.693 1179.28 267.693C1176.66 267.693 1174.54 267.013 1172.92 265.652C1171.29 264.291 1170.47 262.401 1170.47 259.982C1170.47 258.061 1170.96 256.438 1171.93 255.113C1172.9 253.788 1174.36 252.752 1176.3 252.005C1178.25 251.258 1180.73 250.787 1183.74 250.591L1190.03 250.191L1190.03 249.31C1190.03 246.713 1189.52 244.908 1188.48 243.894C1187.45 242.88 1185.64 242.373 1183.04 242.373C1181.8 242.373 1180.25 242.644 1178.41 243.187C1176.57 243.729 1175.02 244.356 1173.76 245.068L1172.4 241.519C1173.89 240.63 1175.72 239.905 1177.88 239.345C1180.04 238.785 1182.02 238.505 1183.82 238.505C1187.51 238.505 1190.25 239.341 1192.02 241.013C1193.79 242.685 1194.67 245.237 1194.67 248.67L1194.67 260.356C1194.67 263.255 1195.18 265.461 1196.2 266.973ZM1190.03 258.995L1190.03 253.686C1186.05 253.917 1183.44 254.099 1182.2 254.233C1180.96 254.366 1179.76 254.655 1178.59 255.1C1177.41 255.545 1176.52 256.149 1175.92 256.914C1175.31 257.679 1175.01 258.631 1175.01 259.769C1175.01 260.943 1175.46 261.89 1176.37 262.61C1177.28 263.331 1178.44 263.691 1179.87 263.691C1181.68 263.691 1183.54 263.26 1185.44 262.397C1187.35 261.534 1188.88 260.4 1190.03 258.995Z" fill="#ffffff" fill-rule="nonzero" opacity="1" stroke="none"/>
<path d="M1225.52 266.973L1220.85 266.973L1220.85 249.257C1220.85 247.14 1220.33 245.495 1219.29 244.321C1218.25 243.147 1216.84 242.56 1215.06 242.56C1212.27 242.56 1209.61 244.072 1207.08 247.096L1207.08 266.973L1202.44 266.973L1202.44 239.172L1207.08 239.172L1207.08 243.094C1210 240.034 1213.07 238.505 1216.31 238.505C1219.16 238.505 1221.4 239.336 1223.05 240.999C1224.69 242.662 1225.52 245.015 1225.52 248.056L1225.52 266.973Z" fill="#ffffff" fill-rule="nonzero" opacity="1" stroke="none"/>
</g>
<g opacity="1">
<path d="M1270.95 266.973L1266.31 266.973L1266.31 263.104C1263.41 266.163 1260.34 267.693 1257.08 267.693C1254.23 267.693 1251.99 266.862 1250.36 265.198C1248.72 263.535 1247.9 261.174 1247.9 258.115L1247.9 239.172L1252.54 239.172L1252.54 256.914C1252.54 259.013 1253.06 260.658 1254.11 261.85C1255.15 263.042 1256.56 263.638 1258.33 263.638C1261.13 263.638 1263.79 262.126 1266.31 259.102L1266.31 239.172L1270.95 239.172L1270.95 266.973Z" fill="#ffffff" fill-rule="nonzero" opacity="1" stroke="none"/>
<path d="M1296.94 244.961C1294.11 243.271 1291.36 242.427 1288.67 242.427C1286.54 242.427 1284.9 242.756 1283.76 243.414C1282.62 244.072 1282.05 244.988 1282.05 246.162C1282.05 246.998 1282.43 247.687 1283.19 248.23C1283.94 248.772 1285.15 249.284 1286.8 249.764L1290.48 250.804C1294.02 251.8 1296.44 252.934 1297.73 254.206C1299.02 255.478 1299.66 257.092 1299.66 259.049C1299.66 261.752 1298.65 263.869 1296.63 265.399C1294.62 266.928 1291.89 267.693 1288.46 267.693C1284.42 267.693 1280.72 266.759 1277.36 264.892L1278.74 261.236C1281.89 262.908 1285.04 263.744 1288.19 263.744C1292.81 263.744 1295.13 262.366 1295.13 259.609C1295.13 258.542 1294.65 257.643 1293.69 256.914C1292.73 256.185 1290.65 255.384 1287.47 254.513C1284.91 253.801 1283.16 253.254 1282.21 252.872C1281.27 252.49 1280.43 251.983 1279.68 251.351C1278.93 250.72 1278.38 250.013 1278.04 249.23C1277.69 248.448 1277.52 247.567 1277.52 246.589C1277.52 244.17 1278.48 242.218 1280.4 240.732C1282.32 239.247 1285.08 238.505 1288.67 238.505C1290.18 238.505 1291.84 238.749 1293.63 239.238C1295.43 239.727 1297.04 240.408 1298.46 241.279L1296.94 244.961Z" fill="#ffffff" fill-rule="nonzero" opacity="1" stroke="none"/>
<path d="M1330.16 264.465C1326.23 266.617 1322.39 267.693 1318.63 267.693C1314.1 267.693 1310.56 266.386 1308.01 263.771C1305.47 261.156 1304.2 257.581 1304.2 253.045C1304.2 248.705 1305.38 245.197 1307.73 242.52C1310.09 239.843 1313.28 238.505 1317.3 238.505C1320.91 238.505 1323.86 239.745 1326.16 242.226C1328.45 244.708 1329.6 248.021 1329.6 252.165L1329.6 253.419L1309 253.419C1309.14 256.745 1310.04 259.289 1311.68 261.05C1313.33 262.811 1315.63 263.691 1318.58 263.691C1322.05 263.691 1325.45 262.686 1328.8 260.676L1330.16 264.465ZM1324.69 249.817C1324.46 247.558 1323.64 245.762 1322.23 244.428C1320.83 243.094 1319.17 242.427 1317.24 242.427C1315.13 242.427 1313.36 243.071 1311.94 244.361C1310.51 245.65 1309.59 247.469 1309.16 249.817L1324.69 249.817Z" fill="#ffffff" fill-rule="nonzero" opacity="1" stroke="none"/>
</g>
<g opacity="1">
<path d="M1362.76 266.813C1361.04 267.4 1359.66 267.693 1358.63 267.693C1356.23 267.693 1354.48 267.017 1353.38 265.665C1352.29 264.314 1351.74 262.197 1351.74 259.315L1351.74 242.987L1348.35 242.987L1348.35 239.172L1351.74 239.172L1351.74 231.568L1356.39 231.568L1356.39 239.172L1361.72 239.172L1361.72 242.987L1356.39 242.987L1356.39 259.102C1356.39 262.161 1357.33 263.691 1359.21 263.691C1360.03 263.691 1360.93 263.513 1361.91 263.157L1362.76 266.813Z" fill="#ffffff" fill-rule="nonzero" opacity="1" stroke="none"/>
<path d="M1378 238.505C1382 238.505 1385.17 239.839 1387.51 242.507C1389.85 245.175 1391.02 248.705 1391.02 253.099C1391.02 257.492 1389.85 261.023 1387.51 263.691C1385.17 266.359 1382 267.693 1378 267.693C1373.98 267.693 1370.8 266.364 1368.46 263.704C1366.12 261.045 1364.95 257.51 1364.95 253.099C1364.95 248.67 1366.12 245.13 1368.46 242.48C1370.8 239.83 1373.98 238.505 1378 238.505ZM1378 263.584C1380.52 263.584 1382.52 262.57 1384 260.543C1385.48 258.515 1386.21 256.034 1386.21 253.099C1386.21 249.933 1385.5 247.394 1384.07 245.482C1382.63 243.569 1380.61 242.613 1378 242.613C1375.36 242.613 1373.33 243.565 1371.9 245.468C1370.47 247.371 1369.75 249.915 1369.75 253.099C1369.75 256.051 1370.49 258.537 1371.97 260.556C1373.44 262.575 1375.45 263.584 1378 263.584Z" fill="#ffffff" fill-rule="nonzero" opacity="1" stroke="none"/>
</g>
<g opacity="1">
<path d="M417.976 325.126C417.976 320.537 419.292 316.966 421.925 314.414C424.557 311.861 427.83 310.585 431.743 310.585C435.052 310.585 438.2 311.457 441.188 313.2L439.827 316.935C437.248 315.352 434.571 314.561 431.797 314.561C429.164 314.561 427.003 315.521 425.313 317.442C423.623 319.363 422.779 321.924 422.779 325.126C422.779 328.381 423.641 330.969 425.367 332.89C427.092 334.811 429.253 335.772 431.85 335.772C434.5 335.772 437.284 334.865 440.201 333.05L441.642 336.706C438.547 338.751 435.283 339.774 431.85 339.774C427.741 339.774 424.402 338.435 421.831 335.758C419.261 333.081 417.976 329.537 417.976 325.126Z" fill="#ffffff" fill-rule="nonzero" opacity="1" stroke="none"/>
<path d="M469.897 339.053L465.227 339.053L465.227 321.338C465.227 319.221 464.707 317.576 463.667 316.402C462.626 315.228 461.216 314.641 459.438 314.641C456.645 314.641 453.986 316.153 451.46 319.176L451.46 339.053L446.818 339.053L446.818 299.379L451.46 299.379L451.46 315.174C454.377 312.115 457.454 310.585 460.692 310.585C463.538 310.585 465.783 311.417 467.429 313.08C469.074 314.743 469.897 317.095 469.897 320.137L469.897 339.053Z" fill="#ffffff" fill-rule="nonzero" opacity="1" stroke="none"/>
<path d="M501.646 336.545C497.715 338.698 493.873 339.774 490.12 339.774C485.585 339.774 482.045 338.466 479.502 335.852C476.958 333.237 475.686 329.662 475.686 325.126C475.686 320.786 476.865 317.278 479.221 314.601C481.578 311.924 484.766 310.585 488.786 310.585C492.397 310.585 495.35 311.826 497.644 314.307C499.939 316.788 501.086 320.101 501.086 324.246L501.086 325.5L480.489 325.5C480.631 328.826 481.525 331.369 483.17 333.13C484.815 334.891 487.114 335.772 490.067 335.772C493.535 335.772 496.942 334.767 500.286 332.757L501.646 336.545ZM496.177 321.898C495.946 319.639 495.127 317.842 493.722 316.508C492.317 315.174 490.654 314.507 488.733 314.507C486.616 314.507 484.847 315.152 483.424 316.442C482.001 317.731 481.076 319.55 480.649 321.898L496.177 321.898Z" fill="#ffffff" fill-rule="nonzero" opacity="1" stroke="none"/>
<path d="M506.075 325.126C506.075 320.537 507.392 316.966 510.024 314.414C512.657 311.861 515.929 310.585 519.843 310.585C523.151 310.585 526.299 311.457 529.287 313.2L527.927 316.935C525.348 315.352 522.671 314.561 519.896 314.561C517.263 314.561 515.102 315.521 513.413 317.442C511.723 319.363 510.878 321.924 510.878 325.126C510.878 328.381 511.741 330.969 513.466 332.89C515.191 334.811 517.352 335.772 519.949 335.772C522.6 335.772 525.383 334.865 528.3 333.05L529.741 336.706C526.646 338.751 523.382 339.774 519.949 339.774C515.84 339.774 512.501 338.435 509.931 335.758C507.36 333.081 506.075 329.537 506.075 325.126Z" fill="#ffffff" fill-rule="nonzero" opacity="1" stroke="none"/>
<path d="M558.316 339.053L552.846 339.053L542.841 325.286L539.559 328.408L539.559 339.053L534.917 339.053L534.917 299.379L539.559 299.379L539.559 323.579L551.379 311.252L556.715 311.252L545.856 322.325L558.316 339.053Z" fill="#ffffff" fill-rule="nonzero" opacity="1" stroke="none"/>
</g>
<g opacity="1">
<path d="M612.184 339.053L606.047 339.053L593.107 323.712L582.995 323.712L582.995 339.053L578.086 339.053L578.086 301.407L593.267 301.407C597.75 301.407 601.249 302.363 603.766 304.275C606.283 306.187 607.542 308.913 607.542 312.453C607.542 315.103 606.723 317.349 605.087 319.19C603.451 321.031 601.281 322.298 598.577 322.992L612.184 339.053ZM582.995 319.55L593.001 319.55C596.007 319.55 598.332 318.941 599.978 317.722C601.623 316.504 602.446 314.765 602.446 312.506C602.446 307.882 599.173 305.569 592.627 305.569L582.995 305.569L582.995 319.55Z" fill="#ffffff" fill-rule="nonzero" opacity="1" stroke="none"/>
<path d="M628.406 310.585C632.408 310.585 635.578 311.919 637.917 314.587C640.256 317.255 641.426 320.786 641.426 325.18C641.426 329.573 640.256 333.104 637.917 335.772C635.578 338.44 632.408 339.774 628.406 339.774C624.386 339.774 621.206 338.444 618.867 335.785C616.528 333.126 615.359 329.591 615.359 325.18C615.359 320.751 616.528 317.211 618.867 314.561C621.206 311.91 624.386 310.585 628.406 310.585ZM628.406 335.665C630.932 335.665 632.933 334.651 634.409 332.623C635.885 330.596 636.623 328.114 636.623 325.18C636.623 322.013 635.907 319.474 634.476 317.562C633.044 315.65 631.02 314.694 628.406 314.694C625.773 314.694 623.741 315.646 622.309 317.549C620.877 319.452 620.161 321.996 620.161 325.18C620.161 328.132 620.9 330.618 622.376 332.637C623.852 334.656 625.862 335.665 628.406 335.665Z" fill="#ffffff" fill-rule="nonzero" opacity="1" stroke="none"/>
<path d="M651.911 314.641C654.188 311.937 657.016 310.585 660.396 310.585C663.633 310.585 666.337 311.879 668.507 314.467C670.677 317.055 671.762 320.439 671.762 324.619C671.762 329.262 670.672 332.948 668.493 335.678C666.314 338.409 663.562 339.774 660.236 339.774C656.838 339.774 654.064 338.458 651.911 335.825L651.911 339.053L647.269 339.053L647.269 299.379L651.911 299.379L651.911 314.641ZM651.911 319.096L651.911 330.969C652.623 332.268 653.65 333.375 654.993 334.291C656.336 335.207 657.719 335.665 659.142 335.665C661.579 335.665 663.491 334.731 664.878 332.864C666.266 330.996 666.959 328.381 666.959 325.019C666.959 321.711 666.274 319.154 664.905 317.349C663.535 315.543 661.614 314.641 659.142 314.641C657.897 314.641 656.62 315.054 655.313 315.881C654.006 316.708 652.872 317.78 651.911 319.096Z" fill="#ffffff" fill-rule="nonzero" opacity="1" stroke="none"/>
<path d="M682.354 332.81C682.354 334.785 682.941 335.772 684.115 335.772C684.631 335.772 685.049 335.709 685.369 335.585L686.089 338.893C685.004 339.32 683.928 339.534 682.861 339.534C681.011 339.534 679.69 339.018 678.899 337.986C678.107 336.955 677.711 335.38 677.711 333.264L677.711 299.299L682.354 299.299L682.354 332.81Z" fill="#ffffff" fill-rule="nonzero" opacity="1" stroke="none"/>
<path d="M701.324 310.585C705.326 310.585 708.496 311.919 710.835 314.587C713.174 317.255 714.344 320.786 714.344 325.18C714.344 329.573 713.174 333.104 710.835 335.772C708.496 338.44 705.326 339.774 701.324 339.774C697.304 339.774 694.124 338.444 691.785 335.785C689.446 333.126 688.277 329.591 688.277 325.18C688.277 320.751 689.446 317.211 691.785 314.561C694.124 311.91 697.304 310.585 701.324 310.585ZM701.324 335.665C703.85 335.665 705.851 334.651 707.327 332.623C708.803 330.596 709.541 328.114 709.541 325.18C709.541 322.013 708.825 319.474 707.394 317.562C705.962 315.65 703.938 314.694 701.324 314.694C698.691 314.694 696.659 315.646 695.227 317.549C693.795 319.452 693.079 321.996 693.079 325.18C693.079 328.132 693.818 330.618 695.294 332.637C696.77 334.656 698.78 335.665 701.324 335.665Z" fill="#ffffff" fill-rule="nonzero" opacity="1" stroke="none"/>
<path d="M742.919 339.053L737.903 339.053L730.085 327.901L722.321 339.053L717.305 339.053L727.577 324.619L717.999 311.252L723.148 311.252L730.085 321.177L737.129 311.252L741.878 311.252L732.593 324.512L742.919 339.053Z" fill="#ffffff" fill-rule="nonzero" opacity="1" stroke="none"/>
<path d="M757.86 335.345C757.86 336.519 757.451 337.501 756.633 338.293C755.814 339.085 754.827 339.48 753.671 339.48C752.479 339.48 751.488 339.085 750.696 338.293C749.905 337.501 749.509 336.519 749.509 335.345C749.509 334.171 749.905 333.188 750.696 332.397C751.488 331.605 752.479 331.209 753.671 331.209C754.827 331.209 755.814 331.605 756.633 332.397C757.451 333.188 757.86 334.171 757.86 335.345Z" fill="#ffffff" fill-rule="nonzero" opacity="1" stroke="none"/>
</g>
</g>
</g>
</svg>
