<svg height="100%" stroke-miterlimit="10" style="fill-rule:nonzero;clip-rule:evenodd;stroke-linecap:round;stroke-linejoin:round;" version="1.1" viewBox="0 0 54 54" width="100%" xml:space="preserve" xmlns="http://www.w3.org/2000/svg" xmlns:vectornator="http://vectornator.io" xmlns:xlink="http://www.w3.org/1999/xlink">
<defs>
<linearGradient gradientTransform="matrix(-1.83697e-16 -1 1 -1.83697e-16 0.00119934 54.0012)" gradientUnits="userSpaceOnUse" id="LinearGradient" x1="4.52592" x2="51.0012" y1="20.7504" y2="30.7327">
<stop offset="0" stop-color="#242424"/>
<stop offset="1" stop-color="#c2cecb"/>
</linearGradient>
<clipPath id="TextBounds">
<rect height="19" width="21.2329" x="33.5012" y="58.5949"/>
</clipPath>
</defs>
<clipPath id="ArtboardFrame">
<rect height="54" width="54" x="0" y="0"/>
</clipPath>
<g clip-path="url(#ArtboardFrame)" id="Untitled" vectornator:layerName="Untitled">
<path d="M4.52787 44.5287L9.47407 4.52472L49.4745 9.47135L44.5283 49.4753L4.52787 44.5287Z" fill="url(#LinearGradient)" fill-rule="nonzero" opacity="1" stroke="none"/>
<path d="M19.2577 33.0398L20.962 19.2558L34.7447 20.9602L33.0404 34.7442L19.2577 33.0398Z" fill="#000000" fill-rule="nonzero" opacity="1" stroke="none"/>
<path clip-path="url(#TextBounds)" d="M53.656 66.3913L53.656 64.6042L37.821 64.6042L37.821 66.3913L53.656 66.3913ZM53.656 70.0388L53.656 68.2517L37.821 68.2517L37.821 70.0388L53.656 70.0388ZM39.7986 74.6311L51.6711 74.6311C52.5891 74.6311 53.3069 74.3723 53.8244 73.8547C54.342 73.3371 54.6008 72.6193 54.6008 71.7014L54.6008 62.9343C54.6008 62.0163 54.342 61.2985 53.8244 60.781C53.3069 60.2634 52.5891 60.0046 51.6711 60.0046L39.7986 60.0046C38.8806 60.0046 38.1628 60.2634 37.6452 60.781C37.1277 61.2985 36.8689 62.0163 36.8689 62.9343L36.8689 71.7014C36.8689 72.6193 37.1277 73.3371 37.6452 73.8547C38.1628 74.3723 38.8806 74.6311 39.7986 74.6311ZM40.238 71.8845C40.0281 71.8845 39.8718 71.8381 39.7693 71.7453C39.6667 71.6525 39.6155 71.4914 39.6155 71.2619L39.6155 63.3737C39.6155 63.1394 39.6667 62.9758 39.7693 62.883C39.8718 62.7902 40.0281 62.7439 40.238 62.7439L51.2317 62.7439C51.4465 62.7439 51.6052 62.7902 51.7077 62.883C51.8103 62.9758 51.8616 63.1394 51.8616 63.3737L51.8616 71.2619C51.8616 71.4914 51.8103 71.6525 51.7077 71.7453C51.6052 71.8381 51.4465 71.8845 51.2317 71.8845L40.238 71.8845ZM50.0671 64.3918C50.2624 64.3869 50.4297 64.3161 50.5688 64.1794C50.708 64.0427 50.7776 63.8767 50.7776 63.6814C50.7776 63.4812 50.708 63.3103 50.5688 63.1687C50.4297 63.0271 50.2624 62.9563 50.0671 62.9563C49.8718 62.9563 49.7021 63.0295 49.5581 63.176C49.414 63.3225 49.342 63.4909 49.342 63.6814C49.342 63.8767 49.414 64.0451 49.5581 64.1867C49.7021 64.3283 49.8718 64.3967 50.0671 64.3918ZM50.0671 68.0393C50.2624 68.0344 50.4297 67.9624 50.5688 67.8232C50.708 67.684 50.7776 67.5168 50.7776 67.3215C50.7776 67.1262 50.708 66.9577 50.5688 66.8161C50.4297 66.6745 50.2624 66.6037 50.0671 66.6037C49.8718 66.6037 49.7021 66.677 49.5581 66.8234C49.414 66.9699 49.342 67.1359 49.342 67.3215C49.342 67.5168 49.414 67.6865 49.5581 67.8305C49.7021 67.9746 49.8718 68.0441 50.0671 68.0393ZM50.0671 71.6721C50.2624 71.6672 50.4297 71.5964 50.5688 71.4597C50.708 71.323 50.7776 71.1569 50.7776 70.9616C50.7776 70.7614 50.708 70.5905 50.5688 70.4489C50.4297 70.3073 50.2624 70.2365 50.0671 70.2365C49.8718 70.2365 49.7021 70.3098 49.5581 70.4563C49.414 70.6027 49.342 70.7712 49.342 70.9616C49.342 71.1569 49.414 71.3254 49.5581 71.467C49.7021 71.6086 49.8718 71.677 50.0671 71.6721Z" fill="#ffffff" opacity="1" stroke="none"/>
<g opacity="1">
<path d="M51.5927 41.917C51.5927 41.6953 51.5401 41.4728 51.4412 41.2741L50.0759 38.5437C49.8798 38.1518 49.4856 37.908 49.0472 37.908L39.1881 37.908C38.7497 37.908 38.3555 38.1518 38.1594 38.5437L36.7941 41.2744C36.6952 41.4728 36.6426 41.6953 36.6426 41.917L36.6426 44.8081C36.6426 45.1534 36.7984 45.4596 37.0399 45.6706C36.7984 45.8816 36.6426 46.1878 36.6426 46.5331L36.6426 48.2581C36.6426 48.6034 36.7984 48.9096 37.0399 49.1206C36.7984 49.3317 36.6426 49.6379 36.6426 49.9832L36.6426 51.7082C36.6426 52.3424 37.1583 52.8582 37.7926 52.8582L50.4427 52.8582C51.077 52.8582 51.5927 52.3424 51.5927 51.7082L51.5927 49.9832C51.5927 49.6379 51.4369 49.3317 51.1954 49.1206C51.4369 48.9096 51.5927 48.6034 51.5927 48.2581L51.5927 46.5331C51.5927 46.1878 51.4369 45.8816 51.1954 45.6706C51.4369 45.4596 51.5927 45.1534 51.5927 44.8081L51.5927 41.917ZM51.0177 51.7082C51.0177 52.0253 50.7598 52.2832 50.4427 52.2832L37.7926 52.2832C37.4755 52.2832 37.2176 52.0253 37.2176 51.7082L37.2176 49.9832C37.2176 49.666 37.4755 49.4081 37.7926 49.4081L50.4427 49.4081C50.7598 49.4081 51.0177 49.666 51.0177 49.9832L51.0177 51.7082ZM51.0177 48.2581C51.0177 48.5752 50.7598 48.8331 50.4427 48.8331L37.7926 48.8331C37.4755 48.8331 37.2176 48.5752 37.2176 48.2581L37.2176 46.5331C37.2176 46.216 37.4755 45.9581 37.7926 45.9581L50.4427 45.9581C50.7598 45.9581 51.0177 46.216 51.0177 46.5331L51.0177 48.2581ZM51.0177 44.8081C51.0177 45.1252 50.7598 45.3831 50.4427 45.3831L37.7926 45.3831C37.4755 45.3831 37.2176 45.1252 37.2176 44.8081L37.2176 42.5081L51.0177 42.5081L51.0177 44.8081ZM51.0177 41.9331L37.2176 41.9331L37.2176 41.917C37.2176 41.7838 37.2489 41.6502 37.3084 41.5311L38.6738 38.8007C38.7718 38.6049 38.969 38.483 39.1881 38.483L49.0469 38.483C49.2663 38.483 49.4632 38.6049 49.5612 38.8007L50.9266 41.5308C50.9864 41.6504 51.0177 41.7838 51.0177 41.917L51.0177 41.9331Z" fill="#ffffff" fill-rule="nonzero" opacity="1" stroke="none"/>
<path d="M44.4052 50.2707C44.2462 50.2707 44.1177 50.3992 44.1177 50.5582L44.1177 51.1332C44.1177 51.2922 44.2462 51.4207 44.4052 51.4207C44.5641 51.4207 44.6927 51.2922 44.6927 51.1332L44.6927 50.5582C44.6927 50.3992 44.5641 50.2707 44.4052 50.2707ZM42.9676 50.2707C42.8087 50.2707 42.6801 50.3992 42.6801 50.5582L42.6801 51.1332C42.6801 51.2922 42.8087 51.4207 42.9676 51.4207C43.1266 51.4207 43.2551 51.2922 43.2551 51.1332L43.2551 50.5582C43.2551 50.3992 43.1266 50.2707 42.9676 50.2707ZM41.5301 50.2707C41.3711 50.2707 41.2426 50.3992 41.2426 50.5582L41.2426 51.1332C41.2426 51.2922 41.3711 51.4207 41.5301 51.4207C41.6891 51.4207 41.8176 51.2922 41.8176 51.1332L41.8176 50.5582C41.8176 50.3992 41.6891 50.2707 41.5301 50.2707ZM40.0926 50.2707C39.9336 50.2707 39.8051 50.3992 39.8051 50.5582L39.8051 51.1332C39.8051 51.2922 39.9336 51.4207 40.0926 51.4207C40.2516 51.4207 40.3801 51.2922 40.3801 51.1332L40.3801 50.5582C40.3801 50.3992 40.2516 50.2707 40.0926 50.2707ZM38.6551 50.2707C38.4961 50.2707 38.3676 50.3992 38.3676 50.5582L38.3676 51.1332C38.3676 51.2922 38.4961 51.4207 38.6551 51.4207C38.8141 51.4207 38.9426 51.2922 38.9426 51.1332L38.9426 50.5582C38.9426 50.3992 38.8141 50.2707 38.6551 50.2707ZM49.0052 49.9832C48.5297 49.9832 48.1427 50.3701 48.1427 50.8457C48.1427 51.3212 48.5297 51.7082 49.0052 51.7082C49.4807 51.7082 49.8677 51.3212 49.8677 50.8457C49.8677 50.3701 49.4807 49.9832 49.0052 49.9832ZM49.0052 51.205C48.8068 51.205 48.6458 51.044 48.6458 50.8457C48.6458 50.6473 48.8068 50.4863 49.0052 50.4863C49.2036 50.4863 49.3646 50.6473 49.3646 50.8457C49.3646 51.044 49.2036 51.205 49.0052 51.205ZM47.2802 50.5582L45.5552 50.5582C45.3962 50.5582 45.2677 50.6867 45.2677 50.8457C45.2677 51.0047 45.3962 51.1332 45.5552 51.1332L47.2802 51.1332C47.4392 51.1332 47.5677 51.0047 47.5677 50.8457C47.5677 50.6867 47.4392 50.5582 47.2802 50.5582ZM44.4052 46.8206C44.2462 46.8206 44.1177 46.9491 44.1177 47.1081L44.1177 47.6831C44.1177 47.8421 44.2462 47.9706 44.4052 47.9706C44.5641 47.9706 44.6927 47.8421 44.6927 47.6831L44.6927 47.1081C44.6927 46.9491 44.5641 46.8206 44.4052 46.8206ZM42.9676 46.8206C42.8087 46.8206 42.6801 46.9491 42.6801 47.1081L42.6801 47.6831C42.6801 47.8421 42.8087 47.9706 42.9676 47.9706C43.1266 47.9706 43.2551 47.8421 43.2551 47.6831L43.2551 47.1081C43.2551 46.9491 43.1266 46.8206 42.9676 46.8206ZM41.5301 46.8206C41.3711 46.8206 41.2426 46.9491 41.2426 47.1081L41.2426 47.6831C41.2426 47.8421 41.3711 47.9706 41.5301 47.9706C41.6891 47.9706 41.8176 47.8421 41.8176 47.6831L41.8176 47.1081C41.8176 46.9491 41.6891 46.8206 41.5301 46.8206ZM40.0926 46.8206C39.9336 46.8206 39.8051 46.9491 39.8051 47.1081L39.8051 47.6831C39.8051 47.8421 39.9336 47.9706 40.0926 47.9706C40.2516 47.9706 40.3801 47.8421 40.3801 47.6831L40.3801 47.1081C40.3801 46.9491 40.2516 46.8206 40.0926 46.8206ZM38.6551 46.8206C38.4961 46.8206 38.3676 46.9491 38.3676 47.1081L38.3676 47.6831C38.3676 47.8421 38.4961 47.9706 38.6551 47.9706C38.8141 47.9706 38.9426 47.8421 38.9426 47.6831L38.9426 47.1081C38.9426 46.9491 38.8141 46.8206 38.6551 46.8206ZM49.0052 46.5331C48.5297 46.5331 48.1427 46.9201 48.1427 47.3956C48.1427 47.8712 48.5297 48.2581 49.0052 48.2581C49.4807 48.2581 49.8677 47.8712 49.8677 47.3956C49.8677 46.9201 49.4807 46.5331 49.0052 46.5331ZM49.0052 47.7429C48.8134 47.7429 48.6579 47.5871 48.6579 47.3956C48.6579 47.2039 48.8137 47.0483 49.0052 47.0483C49.1967 47.0483 49.3525 47.2041 49.3525 47.3956C49.3525 47.5874 49.197 47.7429 49.0052 47.7429ZM47.2802 47.1081L45.5552 47.1081C45.3962 47.1081 45.2677 47.2366 45.2677 47.3956C45.2677 47.5546 45.3962 47.6831 45.5552 47.6831L47.2802 47.6831C47.4392 47.6831 47.5677 47.5546 47.5677 47.3956C47.5677 47.2366 47.4392 47.1081 47.2802 47.1081ZM44.4052 44.5206C44.5641 44.5206 44.6927 44.3921 44.6927 44.2331L44.6927 43.6581C44.6927 43.4991 44.5641 43.3706 44.4052 43.3706C44.2462 43.3706 44.1177 43.4991 44.1177 43.6581L44.1177 44.2331C44.1177 44.3921 44.2462 44.5206 44.4052 44.5206ZM42.9676 44.5206C43.1266 44.5206 43.2551 44.3921 43.2551 44.2331L43.2551 43.6581C43.2551 43.4991 43.1266 43.3706 42.9676 43.3706C42.8087 43.3706 42.6801 43.4991 42.6801 43.6581L42.6801 44.2331C42.6801 44.3921 42.8087 44.5206 42.9676 44.5206ZM41.5301 44.5206C41.6891 44.5206 41.8176 44.3921 41.8176 44.2331L41.8176 43.6581C41.8176 43.4991 41.6891 43.3706 41.5301 43.3706C41.3711 43.3706 41.2426 43.4991 41.2426 43.6581L41.2426 44.2331C41.2426 44.3921 41.3711 44.5206 41.5301 44.5206ZM40.0926 44.5206C40.2516 44.5206 40.3801 44.3921 40.3801 44.2331L40.3801 43.6581C40.3801 43.4991 40.2516 43.3706 40.0926 43.3706C39.9336 43.3706 39.8051 43.4991 39.8051 43.6581L39.8051 44.2331C39.8051 44.3921 39.9336 44.5206 40.0926 44.5206ZM38.6551 44.5206C38.8141 44.5206 38.9426 44.3921 38.9426 44.2331L38.9426 43.6581C38.9426 43.4991 38.8141 43.3706 38.6551 43.3706C38.4961 43.3706 38.3676 43.4991 38.3676 43.6581L38.3676 44.2331C38.3676 44.3921 38.4961 44.5206 38.6551 44.5206ZM49.0052 44.8081C49.4807 44.8081 49.8677 44.4211 49.8677 43.9456C49.8677 43.4701 49.4807 43.0831 49.0052 43.0831C48.5297 43.0831 48.1427 43.4701 48.1427 43.9456C48.1427 44.4211 48.5297 44.8081 49.0052 44.8081ZM49.0052 43.5983C49.197 43.5983 49.3525 43.7541 49.3525 43.9456C49.3525 44.1373 49.1967 44.2929 49.0052 44.2929C48.8137 44.2929 48.6579 44.1373 48.6579 43.9456C48.6579 43.7538 48.8134 43.5983 49.0052 43.5983ZM45.5552 44.2331L47.2802 44.2331C47.4392 44.2331 47.5677 44.1046 47.5677 43.9456C47.5677 43.7866 47.4392 43.6581 47.2802 43.6581L45.5552 43.6581C45.3962 43.6581 45.2677 43.7866 45.2677 43.9456C45.2677 44.1046 45.3962 44.2331 45.5552 44.2331ZM46.7052 39.058L39.2301 39.058C39.0711 39.058 38.9426 39.1865 38.9426 39.3455C38.9426 39.5045 39.0711 39.633 39.2301 39.633L46.7052 39.633C46.8642 39.633 46.9927 39.5045 46.9927 39.3455C46.9927 39.1865 46.8642 39.058 46.7052 39.058ZM49.0052 39.058L47.8552 39.058C47.6962 39.058 47.5677 39.1865 47.5677 39.3455C47.5677 39.5045 47.6962 39.633 47.8552 39.633L49.0052 39.633C49.1642 39.633 49.2927 39.5045 49.2927 39.3455C49.2927 39.1865 49.1642 39.058 49.0052 39.058Z" fill="#ffffff" fill-rule="nonzero" opacity="1" stroke="none"/>
</g>
</g>
</svg>
