<svg height="100%" stroke-miterlimit="10" style="fill-rule:nonzero;clip-rule:evenodd;stroke-linecap:round;stroke-linejoin:round;" version="1.1" viewBox="0 0 1403 400" width="100%" xml:space="preserve" xmlns="http://www.w3.org/2000/svg" xmlns:xlink="http://www.w3.org/1999/xlink">
<defs>
<linearGradient gradientTransform="matrix(-1.31499e-15 -7.15846 7.15846 -1.31499e-15 1.14011 381.179)" gradientUnits="userSpaceOnUse" id="LinearGradient" x1="4.52592" x2="51.0012" y1="20.7504" y2="30.7327">
<stop offset="0" stop-color="#242424"/>
<stop offset="1" stop-color="#c2cecb"/>
</linearGradient>
<clipPath id="TextBounds">
<rect height="173" width="959.578" x="414.044" y="56.9304"/>
</clipPath>
<linearGradient gradientTransform="matrix(1 0 0 1 33.2078 0)" gradientUnits="userSpaceOnUse" id="LinearGradient_2" x1="405.852" x2="2082.54" y1="100.864" y2="290.886">
<stop offset="0" stop-color="#ffffff"/>
<stop offset="1" stop-color="#ff0000"/>
</linearGradient>
</defs>
<g id="Untitled">
<g opacity="1">
<path d="M33.544 313.37L68.9512 27.0035L355.293 62.4137L319.886 348.78L33.544 313.37Z" fill="url(#LinearGradient)" fill-rule="nonzero" opacity="1" stroke="none"/>
<g opacity="1">
<path d="M370.456 294.674C370.456 293.087 370.079 291.494 369.371 290.072L359.597 270.527C358.194 267.722 355.372 265.976 352.234 265.976L281.658 265.976C278.519 265.976 275.698 267.722 274.294 270.527L264.52 290.074C263.812 291.494 263.436 293.087 263.436 294.674L263.436 315.37C263.436 317.842 264.551 320.034 266.28 321.544C264.551 323.055 263.436 325.247 263.436 327.719L263.436 340.067C263.436 342.539 264.551 344.731 266.28 346.241C264.551 347.752 263.436 349.944 263.436 352.416L263.436 364.764C263.436 369.304 267.128 372.996 271.668 372.996L362.224 372.996C366.764 372.996 370.456 369.304 370.456 364.764L370.456 352.416C370.456 349.944 369.34 347.752 367.612 346.241C369.34 344.731 370.456 342.539 370.456 340.067L370.456 327.719C370.456 325.247 369.34 323.055 367.612 321.544C369.34 320.034 370.456 317.842 370.456 315.37L370.456 294.674ZM366.34 364.764C366.34 367.034 364.494 368.88 362.224 368.88L271.668 368.88C269.398 368.88 267.552 367.034 267.552 364.764L267.552 352.416C267.552 350.146 269.398 348.3 271.668 348.3L362.224 348.3C364.494 348.3 366.34 350.146 366.34 352.416L366.34 364.764ZM366.34 340.067C366.34 342.337 364.494 344.183 362.224 344.183L271.668 344.183C269.398 344.183 267.552 342.337 267.552 340.067L267.552 327.719C267.552 325.449 269.398 323.603 271.668 323.603L362.224 323.603C364.494 323.603 366.34 325.449 366.34 327.719L366.34 340.067ZM366.34 315.37C366.34 317.64 364.494 319.486 362.224 319.486L271.668 319.486C269.398 319.486 267.552 317.64 267.552 315.37L267.552 298.906L366.34 298.906L366.34 315.37ZM366.34 294.789L267.552 294.789L267.552 294.674C267.552 293.721 267.776 292.764 268.202 291.912L277.976 272.367C278.678 270.965 280.09 270.093 281.658 270.093L352.232 270.093C353.802 270.093 355.212 270.965 355.913 272.367L365.687 291.91C366.115 292.766 366.34 293.721 366.34 294.674L366.34 294.789Z" fill="#ffffff" fill-rule="nonzero" opacity="1" stroke="none"/>
<path d="M319.004 354.474C317.866 354.474 316.946 355.394 316.946 356.532L316.946 360.648C316.946 361.786 317.866 362.706 319.004 362.706C320.142 362.706 321.062 361.786 321.062 360.648L321.062 356.532C321.062 355.394 320.142 354.474 319.004 354.474ZM308.713 354.474C307.575 354.474 306.655 355.394 306.655 356.532L306.655 360.648C306.655 361.786 307.575 362.706 308.713 362.706C309.852 362.706 310.772 361.786 310.772 360.648L310.772 356.532C310.772 355.394 309.852 354.474 308.713 354.474ZM298.423 354.474C297.285 354.474 296.365 355.394 296.365 356.532L296.365 360.648C296.365 361.786 297.285 362.706 298.423 362.706C299.561 362.706 300.481 361.786 300.481 360.648L300.481 356.532C300.481 355.394 299.561 354.474 298.423 354.474ZM288.133 354.474C286.995 354.474 286.075 355.394 286.075 356.532L286.075 360.648C286.075 361.786 286.995 362.706 288.133 362.706C289.271 362.706 290.191 361.786 290.191 360.648L290.191 356.532C290.191 355.394 289.271 354.474 288.133 354.474ZM277.842 354.474C276.704 354.474 275.784 355.394 275.784 356.532L275.784 360.648C275.784 361.786 276.704 362.706 277.842 362.706C278.98 362.706 279.9 361.786 279.9 360.648L279.9 356.532C279.9 355.394 278.98 354.474 277.842 354.474ZM351.933 352.416C348.529 352.416 345.759 355.186 345.759 358.59C345.759 361.994 348.529 364.764 351.933 364.764C355.337 364.764 358.107 361.994 358.107 358.59C358.107 355.186 355.337 352.416 351.933 352.416ZM351.933 361.163C350.513 361.163 349.361 360.01 349.361 358.59C349.361 357.17 350.513 356.017 351.933 356.017C353.353 356.017 354.506 357.17 354.506 358.59C354.506 360.01 353.353 361.163 351.933 361.163ZM339.585 356.532L327.236 356.532C326.098 356.532 325.178 357.452 325.178 358.59C325.178 359.728 326.098 360.648 327.236 360.648L339.585 360.648C340.723 360.648 341.643 359.728 341.643 358.59C341.643 357.452 340.723 356.532 339.585 356.532ZM319.004 329.777C317.866 329.777 316.946 330.697 316.946 331.835L316.946 335.951C316.946 337.089 317.866 338.009 319.004 338.009C320.142 338.009 321.062 337.089 321.062 335.951L321.062 331.835C321.062 330.697 320.142 329.777 319.004 329.777ZM308.713 329.777C307.575 329.777 306.655 330.697 306.655 331.835L306.655 335.951C306.655 337.089 307.575 338.009 308.713 338.009C309.852 338.009 310.772 337.089 310.772 335.951L310.772 331.835C310.772 330.697 309.852 329.777 308.713 329.777ZM298.423 329.777C297.285 329.777 296.365 330.697 296.365 331.835L296.365 335.951C296.365 337.089 297.285 338.009 298.423 338.009C299.561 338.009 300.481 337.089 300.481 335.951L300.481 331.835C300.481 330.697 299.561 329.777 298.423 329.777ZM288.133 329.777C286.995 329.777 286.075 330.697 286.075 331.835L286.075 335.951C286.075 337.089 286.995 338.009 288.133 338.009C289.271 338.009 290.191 337.089 290.191 335.951L290.191 331.835C290.191 330.697 289.271 329.777 288.133 329.777ZM277.842 329.777C276.704 329.777 275.784 330.697 275.784 331.835L275.784 335.951C275.784 337.089 276.704 338.009 277.842 338.009C278.98 338.009 279.9 337.089 279.9 335.951L279.9 331.835C279.9 330.697 278.98 329.777 277.842 329.777ZM351.933 327.719C348.529 327.719 345.759 330.489 345.759 333.893C345.759 337.297 348.529 340.067 351.933 340.067C355.337 340.067 358.107 337.297 358.107 333.893C358.107 330.489 355.337 327.719 351.933 327.719ZM351.933 336.379C350.56 336.379 349.447 335.264 349.447 333.893C349.447 332.52 350.562 331.407 351.933 331.407C353.304 331.407 354.419 332.522 354.419 333.893C354.419 335.266 353.306 336.379 351.933 336.379ZM339.585 331.835L327.236 331.835C326.098 331.835 325.178 332.755 325.178 333.893C325.178 335.031 326.098 335.951 327.236 335.951L339.585 335.951C340.723 335.951 341.643 335.031 341.643 333.893C341.643 332.755 340.723 331.835 339.585 331.835ZM319.004 313.312C320.142 313.312 321.062 312.392 321.062 311.254L321.062 307.138C321.062 306 320.142 305.08 319.004 305.08C317.866 305.08 316.946 306 316.946 307.138L316.946 311.254C316.946 312.392 317.866 313.312 319.004 313.312ZM308.713 313.312C309.852 313.312 310.772 312.392 310.772 311.254L310.772 307.138C310.772 306 309.852 305.08 308.713 305.08C307.575 305.08 306.655 306 306.655 307.138L306.655 311.254C306.655 312.392 307.575 313.312 308.713 313.312ZM298.423 313.312C299.561 313.312 300.481 312.392 300.481 311.254L300.481 307.138C300.481 306 299.561 305.08 298.423 305.08C297.285 305.08 296.365 306 296.365 307.138L296.365 311.254C296.365 312.392 297.285 313.312 298.423 313.312ZM288.133 313.312C289.271 313.312 290.191 312.392 290.191 311.254L290.191 307.138C290.191 306 289.271 305.08 288.133 305.08C286.995 305.08 286.075 306 286.075 307.138L286.075 311.254C286.075 312.392 286.995 313.312 288.133 313.312ZM277.842 313.312C278.98 313.312 279.9 312.392 279.9 311.254L279.9 307.138C279.9 306 278.98 305.08 277.842 305.08C276.704 305.08 275.784 306 275.784 307.138L275.784 311.254C275.784 312.392 276.704 313.312 277.842 313.312ZM351.933 315.37C355.337 315.37 358.107 312.6 358.107 309.196C358.107 305.792 355.337 303.022 351.933 303.022C348.529 303.022 345.759 305.792 345.759 309.196C345.759 312.6 348.529 315.37 351.933 315.37ZM351.933 306.71C353.306 306.71 354.419 307.825 354.419 309.196C354.419 310.569 353.304 311.682 351.933 311.682C350.562 311.682 349.447 310.569 349.447 309.196C349.447 307.823 350.56 306.71 351.933 306.71ZM327.236 311.254L339.585 311.254C340.723 311.254 341.643 310.334 341.643 309.196C341.643 308.058 340.723 307.138 339.585 307.138L327.236 307.138C326.098 307.138 325.178 308.058 325.178 309.196C325.178 310.334 326.098 311.254 327.236 311.254ZM335.469 274.209L281.958 274.209C280.82 274.209 279.9 275.129 279.9 276.267C279.9 277.405 280.82 278.325 281.958 278.325L335.469 278.325C336.607 278.325 337.527 277.405 337.527 276.267C337.527 275.129 336.607 274.209 335.469 274.209ZM351.933 274.209L343.701 274.209C342.563 274.209 341.643 275.129 341.643 276.267C341.643 277.405 342.563 278.325 343.701 278.325L351.933 278.325C353.071 278.325 353.991 277.405 353.991 276.267C353.991 275.129 353.071 274.209 351.933 274.209Z" fill="#ffffff" fill-rule="nonzero" opacity="1" stroke="none"/>
</g>
<path d="M138.987 231.127L151.187 132.455L249.85 144.656L237.65 243.328L138.987 231.127Z" fill="#000000" fill-rule="nonzero" opacity="1" stroke="none"/>
</g>
<g fill="url(#LinearGradient_2)" opacity="1" stroke="none">
<path clip-path="url(#TextBounds)" d="M509.045 192.93L487.971 192.93L460.93 160.303L442.712 160.303L442.712 192.93L424.495 192.93L424.495 103.365L464.041 103.365C474.662 103.365 482.946 105.841 488.892 110.792C494.837 115.743 497.81 122.662 497.81 131.549C497.81 138.192 496.107 143.789 492.7 148.338C489.294 152.887 484.819 155.881 479.275 157.32L509.045 192.93ZM442.712 145.196L463.406 145.196C474.07 145.196 479.402 140.689 479.402 131.675C479.402 127.486 477.952 124.228 475.054 121.9C472.155 119.573 467.955 118.409 462.454 118.409L442.712 118.409L442.712 145.196Z"/>
<path clip-path="url(#TextBounds)" d="M559.099 125.201C569.552 125.201 577.973 128.269 584.363 134.405C590.753 140.541 593.948 149.047 593.948 159.923C593.948 170.798 590.753 179.304 584.363 185.44C577.973 191.576 569.552 194.644 559.099 194.644C548.647 194.644 540.247 191.576 533.899 185.44C527.551 179.304 524.377 170.798 524.377 159.923C524.377 149.005 527.551 140.488 533.899 134.373C540.247 128.258 548.647 125.201 559.099 125.201ZM559.099 179.664C564.135 179.664 568.166 177.876 571.191 174.3C574.217 170.724 575.73 165.932 575.73 159.923C575.73 153.871 574.238 149.068 571.255 145.513C568.271 141.959 564.22 140.181 559.099 140.181C553.809 140.181 549.736 141.906 546.88 145.355C544.023 148.804 542.595 153.66 542.595 159.923C542.595 166.016 544.034 170.83 546.912 174.363C549.789 177.897 553.852 179.664 559.099 179.664Z"/>
<path clip-path="url(#TextBounds)" d="M679.167 156.939L616.389 156.939L616.389 143.673L679.167 143.673L679.167 156.939Z"/>
<path clip-path="url(#TextBounds)" d="M770.291 125.201C760.6 119.488 750.634 116.632 740.393 116.632C734.596 116.632 729.983 117.573 726.555 119.456C723.127 121.339 721.414 123.783 721.414 126.788C721.414 128.734 722.493 130.448 724.651 131.929C726.809 133.411 732.395 135.04 741.409 136.817C749.11 138.383 755.458 140.012 760.452 141.705C765.445 143.397 769.762 146.159 773.401 149.988C777.04 153.818 778.86 159.034 778.86 165.635C778.86 174.311 775.146 181.314 767.72 186.646C760.293 191.978 751.057 194.644 740.012 194.644C726.005 194.644 712.781 191.428 700.339 184.996L705.671 170.587C718.113 176.553 729.39 179.537 739.504 179.537C745.725 179.537 750.75 178.384 754.58 176.077C758.41 173.771 760.325 170.671 760.325 166.778C760.325 164.366 759.15 162.292 756.802 160.557C754.453 158.822 748.476 157.024 738.87 155.162C731.337 153.681 725.18 152.126 720.398 150.496C715.616 148.867 711.49 146.19 708.02 142.466C704.55 138.743 702.815 133.643 702.815 127.169C702.815 119.551 706.2 113.394 712.971 108.697C719.742 104 728.883 101.651 740.393 101.651C752.834 101.651 764.62 104.656 775.749 110.665L770.291 125.201Z"/>
<path clip-path="url(#TextBounds)" d="M837.864 192.169C834.14 193.819 830.12 194.644 825.803 194.644C818.736 194.644 813.351 192.772 809.648 189.027C805.946 185.281 804.094 179.875 804.094 172.808L804.094 140.435L795.017 140.435L795.017 126.788L804.094 126.788L804.094 106.221L821.614 106.221L821.614 126.788L834.373 126.788L834.373 140.435L821.614 140.435L821.614 170.206C821.614 173.253 822.206 175.633 823.391 177.347C824.576 179.061 826.163 179.918 828.152 179.918C830.564 179.918 832.849 179.452 835.007 178.521L837.864 192.169Z"/>
<path clip-path="url(#TextBounds)" d="M912.61 192.93L894.202 192.93C892.974 190.18 892.361 187.662 892.361 185.377C886.479 191.555 879.412 194.644 871.16 194.644C865.108 194.644 860.347 192.846 856.877 189.249C853.407 185.652 851.672 180.891 851.672 174.966C851.672 170.65 852.825 166.894 855.132 163.699C857.438 160.504 860.866 157.934 865.415 155.987C869.964 154.04 875.413 152.813 881.76 152.305L892.488 151.48L892.488 150.274C892.488 142.742 888.362 138.975 880.11 138.975C877.571 138.975 874.207 139.525 870.017 140.626C865.828 141.726 862.104 143.038 858.845 144.561L854.656 132.374C858.761 130.3 863.49 128.586 868.843 127.232C874.196 125.878 878.946 125.201 883.093 125.201C891.895 125.201 898.582 127.338 903.152 131.612C907.722 135.886 910.007 142.149 910.007 150.401L910.007 177.188C910.007 183.409 910.875 188.656 912.61 192.93ZM892.488 172.935L892.488 162.017C885.124 162.779 880.565 163.308 878.809 163.604C877.052 163.9 875.222 164.556 873.318 165.572C871.414 166.588 869.996 167.847 869.065 169.349C868.134 170.851 867.668 172.554 867.668 174.459C867.668 176.405 868.335 178.045 869.668 179.378C871.001 180.711 872.81 181.378 875.095 181.378C881.485 181.378 887.283 178.564 892.488 172.935Z"/>
<path clip-path="url(#TextBounds)" d="M973.455 192.169C969.731 193.819 965.71 194.644 961.394 194.644C954.327 194.644 948.942 192.772 945.239 189.027C941.536 185.281 939.685 179.875 939.685 172.808L939.685 140.435L930.608 140.435L930.608 126.788L939.685 126.788L939.685 106.221L957.205 106.221L957.205 126.788L969.963 126.788L969.963 140.435L957.205 140.435L957.205 170.206C957.205 173.253 957.797 175.633 958.982 177.347C960.167 179.061 961.754 179.918 963.743 179.918C966.155 179.918 968.44 179.452 970.598 178.521L973.455 192.169Z"/>
<path clip-path="url(#TextBounds)" d="M1052.39 192.93L1034.81 192.93L1034.81 184.869C1029.31 191.301 1022.22 194.517 1013.54 194.517C1006.64 194.517 1001.16 192.465 997.102 188.36C993.04 184.255 991.008 178.542 991.008 171.221L991.008 126.788L1008.59 126.788L1008.59 165.635C1008.59 174.988 1011.96 179.664 1018.68 179.664C1024.69 179.664 1030.07 176.469 1034.81 170.079L1034.81 126.788L1052.39 126.788L1052.39 192.93Z"/>
<path clip-path="url(#TextBounds)" d="M1131.14 142.593C1123.09 139.589 1115.29 138.087 1107.71 138.087C1099.59 138.087 1095.52 139.779 1095.52 143.165C1095.52 144.857 1096.41 146.222 1098.19 147.259C1099.97 148.296 1103.67 149.47 1109.3 150.782C1120.56 153.575 1128.07 156.664 1131.83 160.05C1135.6 163.435 1137.48 167.54 1137.48 172.364C1137.48 187.217 1126.84 194.644 1105.55 194.644C1095.86 194.644 1086.36 192.867 1077.05 189.312L1080.16 175.665C1088.16 179.558 1096.39 181.505 1104.86 181.505C1115.1 181.505 1120.22 179.368 1120.22 175.093C1120.22 173.443 1119.04 172.025 1116.69 170.841C1114.35 169.656 1110.4 168.386 1104.86 167.032C1095.38 164.874 1088.66 162.123 1084.7 158.78C1080.75 155.437 1078.77 151.311 1078.77 146.402C1078.77 139.927 1081.27 134.775 1086.29 130.945C1091.3 127.116 1098.4 125.201 1107.59 125.201C1116.39 125.201 1125.27 126.64 1134.25 129.517L1131.14 142.593Z"/>
</g>
<path d="M446.709 261.513L442.188 261.513L437.736 250.475L424.655 250.475L420.249 261.513L415.774 261.513L429.222 229.132L433.261 229.132L446.709 261.513ZM436.451 246.895L431.242 234.158L426.032 246.895L436.451 246.895Z" fill="#ffffff" fill-rule="nonzero" opacity="1" stroke="none"/>
<g opacity="1">
<path d="M483.107 235.374C481.868 234.441 480.319 233.668 478.46 233.056C476.601 232.444 474.845 232.138 473.193 232.138C470.684 232.138 468.68 232.601 467.18 233.527C465.681 234.452 464.931 235.634 464.931 237.072C464.931 238.113 465.421 239.038 466.4 239.849C467.379 240.66 469.827 241.593 473.744 242.649C476.345 243.353 478.452 244.022 480.066 244.657C481.68 245.292 483.061 246.21 484.208 247.411C485.356 248.612 485.93 250.161 485.93 252.058C485.93 255.225 484.675 257.696 482.166 259.471C479.657 261.245 476.62 262.133 473.055 262.133C468.343 262.133 464.051 261.115 460.181 259.081L461.443 255.455C465.36 257.489 469.169 258.507 472.872 258.507C475.488 258.507 477.63 257.956 479.297 256.855C480.965 255.753 481.799 254.315 481.799 252.54C481.799 251.423 481.393 250.494 480.582 249.752C479.772 249.01 478.766 248.417 477.565 247.973C476.364 247.529 474.723 247.017 472.642 246.436C470.087 245.747 468.025 245.089 466.457 244.462C464.889 243.835 463.554 242.936 462.453 241.765C461.351 240.595 460.8 239.077 460.8 237.21C460.8 234.594 461.917 232.49 464.151 230.899C466.385 229.308 469.399 228.512 473.193 228.512C475.013 228.512 476.972 228.807 479.068 229.396C481.164 229.985 483.076 230.807 484.805 231.863L483.107 235.374Z" fill="#ff7c7c" fill-rule="nonzero" opacity="1" stroke="none"/>
<path d="M512.918 259.356C509.537 261.207 506.232 262.133 503.004 262.133C499.103 262.133 496.058 261.008 493.87 258.759C491.682 256.51 490.588 253.435 490.588 249.534C490.588 245.801 491.602 242.783 493.629 240.48C495.656 238.178 498.399 237.026 501.856 237.026C504.962 237.026 507.502 238.094 509.476 240.228C511.449 242.362 512.436 245.212 512.436 248.776L512.436 249.855L494.719 249.855C494.842 252.716 495.61 254.904 497.026 256.418C498.441 257.933 500.418 258.69 502.958 258.69C505.941 258.69 508.871 257.826 511.748 256.097L512.918 259.356ZM508.213 246.757C508.014 244.814 507.311 243.269 506.102 242.121C504.893 240.974 503.463 240.4 501.811 240.4C499.99 240.4 498.468 240.955 497.244 242.064C496.02 243.173 495.224 244.737 494.857 246.757L508.213 246.757Z" fill="#ff7c7c" fill-rule="nonzero" opacity="1" stroke="none"/>
<path d="M550.899 261.513L546.906 261.513L546.906 246.275C546.906 244.362 546.527 242.924 545.77 241.96C545.012 240.997 543.884 240.515 542.385 240.515C541.436 240.515 540.423 240.813 539.344 241.41C538.265 242.006 537.29 242.833 536.418 243.888C536.449 244.148 536.464 244.6 536.464 245.242L536.464 261.513L532.471 261.513L532.471 246.275C532.471 244.362 532.115 242.924 531.404 241.96C530.692 240.997 529.625 240.515 528.202 240.515C526.075 240.515 524.018 241.815 522.029 244.416L522.029 261.513L518.036 261.513L518.036 237.6L522.029 237.6L522.029 240.974C524.125 238.342 526.542 237.026 529.281 237.026C532.509 237.026 534.681 238.357 535.798 241.02C537.986 238.357 540.541 237.026 543.463 237.026C545.85 237.026 547.686 237.73 548.971 239.138C550.256 240.545 550.899 242.58 550.899 245.242L550.899 261.513Z" fill="#ff7c7c" fill-rule="nonzero" opacity="1" stroke="none"/>
<path d="M561.226 261.513L557.233 261.513L557.233 237.6L561.226 237.6L561.226 261.513ZM559.207 227.388C559.88 227.388 560.457 227.629 560.939 228.111C561.421 228.593 561.662 229.17 561.662 229.843C561.662 230.486 561.421 231.044 560.939 231.519C560.457 231.993 559.88 232.23 559.207 232.23C558.564 232.23 558.006 231.993 557.531 231.519C557.057 231.044 556.82 230.486 556.82 229.843C556.82 229.155 557.053 228.573 557.52 228.099C557.986 227.625 558.549 227.388 559.207 227.388Z" fill="#ff7c7c" fill-rule="nonzero" opacity="1" stroke="none"/>
<path d="M589.545 246.573L567.537 246.573L567.537 243.269L589.545 243.269L589.545 246.573Z" fill="#ff7c7c" fill-rule="nonzero" opacity="1" stroke="none"/>
<path d="M625.736 261.513L620.458 261.513L609.328 248.317L600.63 248.317L600.63 261.513L596.407 261.513L596.407 229.132L609.465 229.132C613.321 229.132 616.331 229.954 618.496 231.599C620.661 233.244 621.743 235.588 621.743 238.633C621.743 240.912 621.039 242.844 619.632 244.427C618.224 246.011 616.358 247.101 614.032 247.698L625.736 261.513ZM600.63 244.737L609.236 244.737C611.821 244.737 613.822 244.213 615.237 243.165C616.652 242.117 617.36 240.622 617.36 238.679C617.36 234.701 614.545 232.712 608.915 232.712L600.63 232.712L600.63 244.737Z" fill="#ff7c7c" fill-rule="nonzero" opacity="1" stroke="none"/>
<path d="M650.797 259.356C647.416 261.207 644.111 262.133 640.883 262.133C636.981 262.133 633.937 261.008 631.749 258.759C629.561 256.51 628.467 253.435 628.467 249.534C628.467 245.801 629.481 242.783 631.508 240.48C633.535 238.178 636.278 237.026 639.735 237.026C642.841 237.026 645.381 238.094 647.354 240.228C649.328 242.362 650.315 245.212 650.315 248.776L650.315 249.855L632.598 249.855C632.721 252.716 633.489 254.904 634.905 256.418C636.32 257.933 638.297 258.69 640.837 258.69C643.82 258.69 646.75 257.826 649.626 256.097L650.797 259.356ZM646.092 246.757C645.893 244.814 645.19 243.269 643.981 242.121C642.772 240.974 641.342 240.4 639.689 240.4C637.869 240.4 636.346 240.955 635.123 242.064C633.899 243.173 633.103 244.737 632.736 246.757L646.092 246.757Z" fill="#ff7c7c" fill-rule="nonzero" opacity="1" stroke="none"/>
<path d="M659.954 256.143C659.954 257.841 660.458 258.69 661.468 258.69C661.912 258.69 662.271 258.637 662.547 258.53L663.166 261.375C662.233 261.743 661.308 261.926 660.39 261.926C658.798 261.926 657.662 261.483 656.982 260.595C656.301 259.708 655.96 258.354 655.96 256.533L655.96 227.319L659.954 227.319L659.954 256.143Z" fill="#ff7c7c" fill-rule="nonzero" opacity="1" stroke="none"/>
<path d="M686.299 237.6L676.615 261.926C675.437 264.879 674.159 267.178 672.782 268.823C671.405 270.467 669.455 271.29 666.93 271.29C665.691 271.29 664.345 270.976 662.891 270.349L663.74 267.159C665.163 267.618 666.257 267.847 667.022 267.847C668.292 267.847 669.428 267.312 670.43 266.241C671.432 265.17 672.3 263.563 673.035 261.421L663.534 237.6L667.642 237.6L674.916 256.579L682.191 237.6L686.299 237.6Z" fill="#ff7c7c" fill-rule="nonzero" opacity="1" stroke="none"/>
<path d="M710.625 261.513L706.311 261.513C706.066 261.131 705.856 260.588 705.68 259.884C705.504 259.18 705.416 258.599 705.416 258.14C702.586 260.802 699.472 262.133 696.076 262.133C693.827 262.133 692.002 261.548 690.602 260.377C689.202 259.207 688.502 257.581 688.502 255.5C688.502 253.848 688.919 252.452 689.753 251.312C690.587 250.172 691.842 249.281 693.517 248.639C695.192 247.996 697.323 247.591 699.908 247.422L705.324 247.078L705.324 246.321C705.324 244.087 704.881 242.534 703.993 241.662C703.106 240.79 701.545 240.354 699.312 240.354C698.241 240.354 696.913 240.587 695.33 241.054C693.746 241.521 692.411 242.06 691.325 242.672L690.155 239.62C691.44 238.855 693.012 238.231 694.871 237.749C696.73 237.267 698.432 237.026 699.977 237.026C703.159 237.026 705.512 237.745 707.034 239.184C708.556 240.622 709.317 242.817 709.317 245.77L709.317 255.822C709.317 258.316 709.753 260.213 710.625 261.513ZM705.324 254.651L705.324 250.084C701.897 250.283 699.652 250.44 698.589 250.555C697.525 250.67 696.489 250.918 695.479 251.301C694.469 251.683 693.704 252.203 693.184 252.861C692.664 253.519 692.404 254.338 692.404 255.317C692.404 256.327 692.794 257.141 693.574 257.761C694.354 258.381 695.357 258.69 696.581 258.69C698.141 258.69 699.74 258.319 701.377 257.577C703.014 256.835 704.33 255.86 705.324 254.651Z" fill="#ff7c7c" fill-rule="nonzero" opacity="1" stroke="none"/>
<path d="M719.989 240.515C721.947 238.189 724.38 237.026 727.287 237.026C730.071 237.026 732.397 238.139 734.263 240.365C736.13 242.592 737.063 245.502 737.063 249.098C737.063 253.091 736.126 256.262 734.252 258.61C732.378 260.959 730.01 262.133 727.149 262.133C724.227 262.133 721.84 261.001 719.989 258.736L719.989 261.513L715.996 261.513L715.996 227.388L719.989 227.388L719.989 240.515ZM719.989 244.347L719.989 254.56C720.601 255.676 721.484 256.629 722.639 257.417C723.794 258.205 724.984 258.599 726.208 258.599C728.304 258.599 729.949 257.795 731.142 256.189C732.335 254.583 732.932 252.334 732.932 249.442C732.932 246.596 732.343 244.397 731.165 242.844C729.987 241.291 728.335 240.515 726.208 240.515C725.137 240.515 724.039 240.87 722.915 241.582C721.79 242.293 720.815 243.215 719.989 244.347Z" fill="#ff7c7c" fill-rule="nonzero" opacity="1" stroke="none"/>
<path d="M746.174 256.143C746.174 257.841 746.679 258.69 747.688 258.69C748.132 258.69 748.492 258.637 748.767 258.53L749.387 261.375C748.453 261.743 747.528 261.926 746.61 261.926C745.019 261.926 743.883 261.483 743.202 260.595C742.521 259.708 742.181 258.354 742.181 256.533L742.181 227.319L746.174 227.319L746.174 256.143Z" fill="#ff7c7c" fill-rule="nonzero" opacity="1" stroke="none"/>
<path d="M773.598 259.356C770.217 261.207 766.912 262.133 763.684 262.133C759.783 262.133 756.738 261.008 754.55 258.759C752.362 256.51 751.269 253.435 751.269 249.534C751.269 245.801 752.282 242.783 754.309 240.48C756.336 238.178 759.079 237.026 762.537 237.026C765.642 237.026 768.182 238.094 770.156 240.228C772.129 242.362 773.116 245.212 773.116 248.776L773.116 249.855L755.399 249.855C755.522 252.716 756.291 254.904 757.706 256.418C759.121 257.933 761.098 258.69 763.638 258.69C766.622 258.69 769.551 257.826 772.428 256.097L773.598 259.356ZM768.894 246.757C768.695 244.814 767.991 243.269 766.782 242.121C765.574 240.974 764.143 240.4 762.491 240.4C760.67 240.4 759.148 240.955 757.924 242.064C756.7 243.173 755.904 244.737 755.537 246.757L768.894 246.757Z" fill="#ff7c7c" fill-rule="nonzero" opacity="1" stroke="none"/>
</g>
<g opacity="1">
<path d="M807.724 242.58C805.291 241.127 802.92 240.4 800.609 240.4C798.773 240.4 797.366 240.683 796.387 241.249C795.408 241.815 794.918 242.603 794.918 243.613C794.918 244.332 795.243 244.925 795.893 245.391C796.544 245.858 797.58 246.298 799.003 246.711L802.17 247.606C805.214 248.463 807.291 249.438 808.401 250.532C809.51 251.626 810.064 253.014 810.064 254.697C810.064 257.023 809.196 258.843 807.46 260.159C805.723 261.475 803.379 262.133 800.426 262.133C796.953 262.133 793.77 261.33 790.879 259.723L792.072 256.579C794.78 258.017 797.488 258.736 800.196 258.736C804.174 258.736 806.163 257.551 806.163 255.179C806.163 254.261 805.75 253.489 804.924 252.861C804.098 252.234 802.315 251.546 799.577 250.796C797.374 250.184 795.867 249.713 795.056 249.385C794.245 249.056 793.518 248.62 792.875 248.076C792.233 247.533 791.762 246.925 791.464 246.252C791.166 245.579 791.017 244.821 791.017 243.98C791.017 241.899 791.843 240.22 793.495 238.943C795.147 237.665 797.519 237.026 800.609 237.026C801.91 237.026 803.333 237.237 804.878 237.657C806.423 238.078 807.808 238.663 809.032 239.413L807.724 242.58Z" fill="#ffffff" fill-rule="nonzero" opacity="1" stroke="none"/>
<path d="M836.295 259.356C832.914 261.207 829.61 262.133 826.381 262.133C822.48 262.133 819.435 261.008 817.248 258.759C815.06 256.51 813.966 253.435 813.966 249.534C813.966 245.801 814.979 242.783 817.007 240.48C819.034 238.178 821.776 237.026 825.234 237.026C828.34 237.026 830.879 238.094 832.853 240.228C834.827 242.362 835.813 245.212 835.813 248.776L835.813 249.855L818.097 249.855C818.219 252.716 818.988 254.904 820.403 256.418C821.818 257.933 823.796 258.69 826.335 258.69C829.319 258.69 832.249 257.826 835.125 256.097L836.295 259.356ZM831.591 246.757C831.392 244.814 830.688 243.269 829.479 242.121C828.271 240.974 826.84 240.4 825.188 240.4C823.367 240.4 821.845 240.955 820.621 242.064C819.397 243.173 818.602 244.737 818.234 246.757L831.591 246.757Z" fill="#ffffff" fill-rule="nonzero" opacity="1" stroke="none"/>
<path d="M854.288 237.967L853.117 241.387C852.413 240.958 851.771 240.744 851.189 240.744C850.348 240.744 849.545 241.15 848.78 241.96C848.015 242.771 847.261 243.965 846.519 245.541C845.777 247.116 845.406 247.912 845.406 247.927L845.406 261.513L841.413 261.513L841.413 237.6L845.177 237.6L845.177 243.131C846.324 240.759 847.349 239.149 848.252 238.3C849.155 237.451 850.21 237.026 851.419 237.026C852.566 237.026 853.523 237.34 854.288 237.967Z" fill="#ffffff" fill-rule="nonzero" opacity="1" stroke="none"/>
<path d="M877.007 237.6L867.46 261.513L863.789 261.513L854.242 237.6L858.35 237.6L865.624 256.579L872.899 237.6L877.007 237.6Z" fill="#ffffff" fill-rule="nonzero" opacity="1" stroke="none"/>
<path d="M884.603 261.513L880.61 261.513L880.61 237.6L884.603 237.6L884.603 261.513ZM882.584 227.388C883.257 227.388 883.835 227.629 884.317 228.111C884.799 228.593 885.04 229.17 885.04 229.843C885.04 230.486 884.799 231.044 884.317 231.519C883.835 231.993 883.257 232.23 882.584 232.23C881.941 232.23 881.383 231.993 880.909 231.519C880.434 231.044 880.197 230.486 880.197 229.843C880.197 229.155 880.431 228.573 880.897 228.099C881.364 227.625 881.926 227.388 882.584 227.388Z" fill="#ffffff" fill-rule="nonzero" opacity="1" stroke="none"/>
<path d="M889.698 249.534C889.698 245.586 890.83 242.515 893.095 240.32C895.359 238.124 898.174 237.026 901.54 237.026C904.386 237.026 907.094 237.776 909.664 239.275L908.494 242.488C906.275 241.127 903.973 240.446 901.586 240.446C899.322 240.446 897.463 241.272 896.009 242.924C894.556 244.577 893.829 246.78 893.829 249.534C893.829 252.334 894.571 254.56 896.055 256.212C897.539 257.864 899.398 258.69 901.632 258.69C903.911 258.69 906.306 257.91 908.815 256.35L910.054 259.494C907.392 261.253 904.585 262.133 901.632 262.133C898.098 262.133 895.225 260.982 893.014 258.679C890.804 256.376 889.698 253.328 889.698 249.534Z" fill="#ffffff" fill-rule="nonzero" opacity="1" stroke="none"/>
<path d="M935.528 259.356C932.147 261.207 928.842 262.133 925.614 262.133C921.712 262.133 918.668 261.008 916.48 258.759C914.292 256.51 913.198 253.435 913.198 249.534C913.198 245.801 914.212 242.783 916.239 240.48C918.266 238.178 921.009 237.026 924.466 237.026C927.572 237.026 930.112 238.094 932.085 240.228C934.059 242.362 935.046 245.212 935.046 248.776L935.046 249.855L917.329 249.855C917.451 252.716 918.22 254.904 919.635 256.418C921.051 257.933 923.028 258.69 925.568 258.69C928.551 258.69 931.481 257.826 934.357 256.097L935.528 259.356ZM930.823 246.757C930.624 244.814 929.921 243.269 928.712 242.121C927.503 240.974 926.073 240.4 924.42 240.4C922.6 240.4 921.077 240.955 919.853 242.064C918.63 243.173 917.834 244.737 917.467 246.757L930.823 246.757Z" fill="#ffffff" fill-rule="nonzero" opacity="1" stroke="none"/>
</g>
<g opacity="1">
<path d="M973.646 237.6L963.962 261.926C962.784 264.879 961.506 267.178 960.129 268.823C958.752 270.467 956.802 271.29 954.277 271.29C953.038 271.29 951.692 270.976 950.238 270.349L951.087 267.159C952.51 267.618 953.604 267.847 954.369 267.847C955.639 267.847 956.775 267.312 957.777 266.241C958.779 265.17 959.647 263.563 960.382 261.421L950.881 237.6L954.989 237.6L962.264 256.579L969.539 237.6L973.646 237.6Z" fill="#ffffff" fill-rule="nonzero" opacity="1" stroke="none"/>
<path d="M987.118 237.026C990.56 237.026 993.287 238.174 995.299 240.469C997.311 242.764 998.317 245.801 998.317 249.58C998.317 253.359 997.311 256.396 995.299 258.69C993.287 260.985 990.56 262.133 987.118 262.133C983.66 262.133 980.925 260.989 978.913 258.702C976.901 256.415 975.895 253.374 975.895 249.58C975.895 245.77 976.901 242.725 978.913 240.446C980.925 238.166 983.66 237.026 987.118 237.026ZM987.118 258.599C989.29 258.599 991.011 257.727 992.281 255.982C993.551 254.238 994.186 252.104 994.186 249.58C994.186 246.856 993.57 244.672 992.339 243.028C991.107 241.383 989.367 240.561 987.118 240.561C984.853 240.561 983.105 241.379 981.874 243.016C980.642 244.653 980.026 246.841 980.026 249.58C980.026 252.119 980.661 254.257 981.931 255.994C983.201 257.73 984.93 258.599 987.118 258.599Z" fill="#ffffff" fill-rule="nonzero" opacity="1" stroke="none"/>
<path d="M1023.08 261.513L1019.09 261.513L1019.09 258.186C1016.59 260.817 1013.95 262.133 1011.15 262.133C1008.7 262.133 1006.77 261.418 1005.36 259.987C1003.95 258.557 1003.25 256.526 1003.25 253.894L1003.25 237.6L1007.24 237.6L1007.24 252.861C1007.24 254.667 1007.69 256.082 1008.59 257.107C1009.48 258.132 1010.69 258.645 1012.22 258.645C1014.63 258.645 1016.91 257.344 1019.09 254.743L1019.09 237.6L1023.08 237.6L1023.08 261.513Z" fill="#ffffff" fill-rule="nonzero" opacity="1" stroke="none"/>
</g>
<g opacity="1">
<path d="M1041.23 249.534C1041.23 245.586 1042.36 242.515 1044.63 240.32C1046.89 238.124 1049.71 237.026 1053.07 237.026C1055.92 237.026 1058.63 237.776 1061.2 239.275L1060.03 242.488C1057.81 241.127 1055.51 240.446 1053.12 240.446C1050.86 240.446 1049 241.272 1047.54 242.924C1046.09 244.577 1045.36 246.78 1045.36 249.534C1045.36 252.334 1046.1 254.56 1047.59 256.212C1049.07 257.864 1050.93 258.69 1053.17 258.69C1055.45 258.69 1057.84 257.91 1060.35 256.35L1061.59 259.494C1058.93 261.253 1056.12 262.133 1053.17 262.133C1049.63 262.133 1046.76 260.982 1044.55 258.679C1042.34 256.376 1041.23 253.328 1041.23 249.534Z" fill="#ffffff" fill-rule="nonzero" opacity="1" stroke="none"/>
<path d="M1086.81 261.513L1082.49 261.513C1082.25 261.131 1082.04 260.588 1081.86 259.884C1081.69 259.18 1081.6 258.599 1081.6 258.14C1078.77 260.802 1075.66 262.133 1072.26 262.133C1070.01 262.133 1068.19 261.548 1066.79 260.377C1065.39 259.207 1064.69 257.581 1064.69 255.5C1064.69 253.848 1065.1 252.452 1065.94 251.312C1066.77 250.172 1068.03 249.281 1069.7 248.639C1071.38 247.996 1073.51 247.591 1076.09 247.422L1081.51 247.078L1081.51 246.321C1081.51 244.087 1081.06 242.534 1080.18 241.662C1079.29 240.79 1077.73 240.354 1075.5 240.354C1074.42 240.354 1073.1 240.587 1071.51 241.054C1069.93 241.521 1068.6 242.06 1067.51 242.672L1066.34 239.62C1067.62 238.855 1069.2 238.231 1071.05 237.749C1072.91 237.267 1074.62 237.026 1076.16 237.026C1079.34 237.026 1081.7 237.745 1083.22 239.184C1084.74 240.622 1085.5 242.817 1085.5 245.77L1085.5 255.822C1085.5 258.316 1085.94 260.213 1086.81 261.513ZM1081.51 254.651L1081.51 250.084C1078.08 250.283 1075.84 250.44 1074.77 250.555C1073.71 250.67 1072.67 250.918 1071.66 251.301C1070.65 251.683 1069.89 252.203 1069.37 252.861C1068.85 253.519 1068.59 254.338 1068.59 255.317C1068.59 256.327 1068.98 257.141 1069.76 257.761C1070.54 258.381 1071.54 258.69 1072.76 258.69C1074.32 258.69 1075.92 258.319 1077.56 257.577C1079.2 256.835 1080.51 255.86 1081.51 254.651Z" fill="#ffffff" fill-rule="nonzero" opacity="1" stroke="none"/>
<path d="M1112.03 261.513L1108.01 261.513L1108.01 246.275C1108.01 244.454 1107.57 243.039 1106.67 242.029C1105.78 241.02 1104.56 240.515 1103.03 240.515C1100.63 240.515 1098.34 241.815 1096.17 244.416L1096.17 261.513L1092.18 261.513L1092.18 237.6L1096.17 237.6L1096.17 240.974C1098.68 238.342 1101.33 237.026 1104.11 237.026C1106.56 237.026 1108.49 237.742 1109.91 239.172C1111.32 240.603 1112.03 242.626 1112.03 245.242L1112.03 261.513Z" fill="#ffffff" fill-rule="nonzero" opacity="1" stroke="none"/>
</g>
<g opacity="1">
<path d="M1151.11 261.513L1147.12 261.513L1147.12 258.186C1144.63 260.817 1141.98 262.133 1139.18 262.133C1136.73 262.133 1134.8 261.418 1133.4 259.987C1131.99 258.557 1131.28 256.526 1131.28 253.894L1131.28 237.6L1135.28 237.6L1135.28 252.861C1135.28 254.667 1135.73 256.082 1136.62 257.107C1137.52 258.132 1138.73 258.645 1140.26 258.645C1142.66 258.645 1144.95 257.344 1147.12 254.743L1147.12 237.6L1151.11 237.6L1151.11 261.513Z" fill="#ffffff" fill-rule="nonzero" opacity="1" stroke="none"/>
<path d="M1173.47 242.58C1171.03 241.127 1168.66 240.4 1166.35 240.4C1164.52 240.4 1163.11 240.683 1162.13 241.249C1161.15 241.815 1160.66 242.603 1160.66 243.613C1160.66 244.332 1160.98 244.925 1161.63 245.391C1162.29 245.858 1163.32 246.298 1164.74 246.711L1167.91 247.606C1170.96 248.463 1173.03 249.438 1174.14 250.532C1175.25 251.626 1175.81 253.014 1175.81 254.697C1175.81 257.023 1174.94 258.843 1173.2 260.159C1171.46 261.475 1169.12 262.133 1166.17 262.133C1162.69 262.133 1159.51 261.33 1156.62 259.723L1157.81 256.579C1160.52 258.017 1163.23 258.736 1165.94 258.736C1169.92 258.736 1171.9 257.551 1171.9 255.179C1171.9 254.261 1171.49 253.489 1170.67 252.861C1169.84 252.234 1168.06 251.546 1165.32 250.796C1163.12 250.184 1161.61 249.713 1160.8 249.385C1159.99 249.056 1159.26 248.62 1158.62 248.076C1157.97 247.533 1157.5 246.925 1157.21 246.252C1156.91 245.579 1156.76 244.821 1156.76 243.98C1156.76 241.899 1157.58 240.22 1159.24 238.943C1160.89 237.665 1163.26 237.026 1166.35 237.026C1167.65 237.026 1169.07 237.237 1170.62 237.657C1172.16 238.078 1173.55 238.663 1174.77 239.413L1173.47 242.58Z" fill="#ffffff" fill-rule="nonzero" opacity="1" stroke="none"/>
<path d="M1202.04 259.356C1198.66 261.207 1195.35 262.133 1192.12 262.133C1188.22 262.133 1185.18 261.008 1182.99 258.759C1180.8 256.51 1179.71 253.435 1179.71 249.534C1179.71 245.801 1180.72 242.783 1182.75 240.48C1184.78 238.178 1187.52 237.026 1190.98 237.026C1194.08 237.026 1196.62 238.094 1198.59 240.228C1200.57 242.362 1201.56 245.212 1201.56 248.776L1201.56 249.855L1183.84 249.855C1183.96 252.716 1184.73 254.904 1186.14 256.418C1187.56 257.933 1189.54 258.69 1192.08 258.69C1195.06 258.69 1197.99 257.826 1200.87 256.097L1202.04 259.356ZM1197.33 246.757C1197.13 244.814 1196.43 243.269 1195.22 242.121C1194.01 240.974 1192.58 240.4 1190.93 240.4C1189.11 240.4 1187.59 240.955 1186.36 242.064C1185.14 243.173 1184.34 244.737 1183.98 246.757L1197.33 246.757Z" fill="#ffffff" fill-rule="nonzero" opacity="1" stroke="none"/>
</g>
<g opacity="1">
<path d="M1230.08 261.375C1228.6 261.88 1227.41 262.133 1226.52 262.133C1224.46 262.133 1222.96 261.551 1222.01 260.389C1221.07 259.226 1220.6 257.405 1220.6 254.927L1220.6 240.882L1217.69 240.882L1217.69 237.6L1220.6 237.6L1220.6 231.06L1224.6 231.06L1224.6 237.6L1229.19 237.6L1229.19 240.882L1224.6 240.882L1224.6 254.743C1224.6 257.375 1225.41 258.69 1227.03 258.69C1227.73 258.69 1228.51 258.537 1229.35 258.231L1230.08 261.375Z" fill="#ffffff" fill-rule="nonzero" opacity="1" stroke="none"/>
<path d="M1243.19 237.026C1246.63 237.026 1249.35 238.174 1251.37 240.469C1253.38 242.764 1254.38 245.801 1254.38 249.58C1254.38 253.359 1253.38 256.396 1251.37 258.69C1249.35 260.985 1246.63 262.133 1243.19 262.133C1239.73 262.133 1236.99 260.989 1234.98 258.702C1232.97 256.415 1231.96 253.374 1231.96 249.58C1231.96 245.77 1232.97 242.725 1234.98 240.446C1236.99 238.166 1239.73 237.026 1243.19 237.026ZM1243.19 258.599C1245.36 258.599 1247.08 257.727 1248.35 255.982C1249.62 254.238 1250.25 252.104 1250.25 249.58C1250.25 246.856 1249.64 244.672 1248.41 243.028C1247.17 241.383 1245.43 240.561 1243.19 240.561C1240.92 240.561 1239.17 241.379 1237.94 243.016C1236.71 244.653 1236.09 246.841 1236.09 249.58C1236.09 252.119 1236.73 254.257 1238 255.994C1239.27 257.73 1241 258.599 1243.19 258.599Z" fill="#ffffff" fill-rule="nonzero" opacity="1" stroke="none"/>
</g>
<g opacity="1">
<path d="M417.426 311.534C417.426 307.586 418.558 304.515 420.823 302.32C423.087 300.124 425.902 299.026 429.268 299.026C432.114 299.026 434.822 299.776 437.392 301.275L436.222 304.488C434.003 303.127 431.701 302.446 429.314 302.446C427.05 302.446 425.191 303.272 423.737 304.924C422.284 306.577 421.557 308.78 421.557 311.534C421.557 314.334 422.299 316.56 423.783 318.212C425.267 319.864 427.126 320.69 429.36 320.69C431.639 320.69 434.034 319.91 436.543 318.35L437.782 321.494C435.12 323.253 432.313 324.133 429.36 324.133C425.826 324.133 422.953 322.982 420.742 320.679C418.532 318.376 417.426 315.328 417.426 311.534Z" fill="#ffffff" fill-rule="nonzero" opacity="1" stroke="none"/>
<path d="M462.085 323.513L458.069 323.513L458.069 308.275C458.069 306.454 457.622 305.039 456.727 304.029C455.832 303.02 454.619 302.515 453.089 302.515C450.687 302.515 448.4 303.815 446.228 306.416L446.228 323.513L442.234 323.513L442.234 289.388L446.228 289.388L446.228 302.974C448.737 300.342 451.383 299.026 454.168 299.026C456.616 299.026 458.547 299.742 459.963 301.172C461.378 302.603 462.085 304.626 462.085 307.242L462.085 323.513Z" fill="#ffffff" fill-rule="nonzero" opacity="1" stroke="none"/>
<path d="M489.395 321.356C486.014 323.207 482.709 324.133 479.481 324.133C475.58 324.133 472.535 323.008 470.347 320.759C468.159 318.51 467.065 315.435 467.065 311.534C467.065 307.801 468.079 304.783 470.106 302.48C472.133 300.178 474.876 299.026 478.333 299.026C481.439 299.026 483.979 300.094 485.953 302.228C487.926 304.362 488.913 307.212 488.913 310.776L488.913 311.855L471.196 311.855C471.319 314.716 472.087 316.904 473.503 318.418C474.918 319.933 476.895 320.69 479.435 320.69C482.418 320.69 485.348 319.826 488.225 318.097L489.395 321.356ZM484.69 308.757C484.492 306.814 483.788 305.269 482.579 304.121C481.37 302.974 479.94 302.4 478.288 302.4C476.467 302.4 474.945 302.955 473.721 304.064C472.497 305.173 471.701 306.737 471.334 308.757L484.69 308.757Z" fill="#ffffff" fill-rule="nonzero" opacity="1" stroke="none"/>
<path d="M493.205 311.534C493.205 307.586 494.337 304.515 496.601 302.32C498.865 300.124 501.68 299.026 505.046 299.026C507.892 299.026 510.6 299.776 513.17 301.275L512 304.488C509.782 303.127 507.479 302.446 505.092 302.446C502.828 302.446 500.969 303.272 499.516 304.924C498.062 306.577 497.335 308.78 497.335 311.534C497.335 314.334 498.077 316.56 499.562 318.212C501.046 319.864 502.904 320.69 505.138 320.69C507.418 320.69 509.812 319.91 512.321 318.35L513.561 321.494C510.898 323.253 508.091 324.133 505.138 324.133C501.604 324.133 498.732 322.982 496.521 320.679C494.31 318.376 493.205 315.328 493.205 311.534Z" fill="#ffffff" fill-rule="nonzero" opacity="1" stroke="none"/>
<path d="M538.139 323.513L533.435 323.513L524.829 311.671L522.006 314.356L522.006 323.513L518.013 323.513L518.013 289.388L522.006 289.388L522.006 310.203L532.172 299.6L536.762 299.6L527.422 309.124L538.139 323.513Z" fill="#ffffff" fill-rule="nonzero" opacity="1" stroke="none"/>
</g>
<g opacity="1">
<path d="M584.474 323.513L579.195 323.513L568.065 310.317L559.367 310.317L559.367 323.513L555.145 323.513L555.145 291.132L568.203 291.132C572.058 291.132 575.068 291.954 577.233 293.599C579.398 295.244 580.48 297.588 580.48 300.633C580.48 302.912 579.777 304.844 578.369 306.427C576.962 308.011 575.095 309.101 572.77 309.698L584.474 323.513ZM559.367 306.737L567.973 306.737C570.559 306.737 572.559 306.213 573.974 305.165C575.39 304.117 576.097 302.622 576.097 300.679C576.097 296.701 573.282 294.712 567.652 294.712L559.367 294.712L559.367 306.737Z" fill="#ffffff" fill-rule="nonzero" opacity="1" stroke="none"/>
<path d="M598.427 299.026C601.869 299.026 604.596 300.174 606.608 302.469C608.62 304.764 609.626 307.801 609.626 311.58C609.626 315.359 608.62 318.396 606.608 320.69C604.596 322.985 601.869 324.133 598.427 324.133C594.969 324.133 592.234 322.989 590.222 320.702C588.211 318.415 587.205 315.374 587.205 311.58C587.205 307.77 588.211 304.725 590.222 302.446C592.234 300.166 594.969 299.026 598.427 299.026ZM598.427 320.599C600.599 320.599 602.32 319.727 603.59 317.982C604.86 316.238 605.495 314.104 605.495 311.58C605.495 308.856 604.879 306.672 603.648 305.028C602.416 303.383 600.676 302.561 598.427 302.561C596.162 302.561 594.414 303.379 593.183 305.016C591.951 306.653 591.335 308.841 591.335 311.58C591.335 314.119 591.97 316.257 593.24 317.994C594.51 319.73 596.239 320.599 598.427 320.599Z" fill="#ffffff" fill-rule="nonzero" opacity="1" stroke="none"/>
<path d="M618.645 302.515C620.603 300.189 623.036 299.026 625.943 299.026C628.727 299.026 631.053 300.139 632.919 302.365C634.786 304.592 635.719 307.502 635.719 311.098C635.719 315.091 634.782 318.262 632.908 320.61C631.034 322.959 628.666 324.133 625.805 324.133C622.883 324.133 620.496 323.001 618.645 320.736L618.645 323.513L614.652 323.513L614.652 289.388L618.645 289.388L618.645 302.515ZM618.645 306.347L618.645 316.56C619.257 317.676 620.141 318.629 621.296 319.417C622.451 320.205 623.64 320.599 624.864 320.599C626.96 320.599 628.605 319.795 629.798 318.189C630.992 316.583 631.588 314.334 631.588 311.442C631.588 308.596 630.999 306.397 629.821 304.844C628.643 303.291 626.991 302.515 624.864 302.515C623.793 302.515 622.696 302.87 621.571 303.582C620.447 304.293 619.471 305.215 618.645 306.347Z" fill="#ffffff" fill-rule="nonzero" opacity="1" stroke="none"/>
<path d="M644.83 318.143C644.83 319.841 645.335 320.69 646.345 320.69C646.788 320.69 647.148 320.637 647.423 320.53L648.043 323.375C647.11 323.743 646.184 323.926 645.266 323.926C643.675 323.926 642.539 323.483 641.858 322.595C641.177 321.708 640.837 320.354 640.837 318.533L640.837 289.319L644.83 289.319L644.83 318.143Z" fill="#ffffff" fill-rule="nonzero" opacity="1" stroke="none"/>
<path d="M661.147 299.026C664.589 299.026 667.316 300.174 669.328 302.469C671.34 304.764 672.346 307.801 672.346 311.58C672.346 315.359 671.34 318.396 669.328 320.69C667.316 322.985 664.589 324.133 661.147 324.133C657.689 324.133 654.954 322.989 652.943 320.702C650.931 318.415 649.925 315.374 649.925 311.58C649.925 307.77 650.931 304.725 652.943 302.446C654.954 300.166 657.689 299.026 661.147 299.026ZM661.147 320.599C663.319 320.599 665.041 319.727 666.311 317.982C667.58 316.238 668.215 314.104 668.215 311.58C668.215 308.856 667.6 306.672 666.368 305.028C665.136 303.383 663.396 302.561 661.147 302.561C658.883 302.561 657.135 303.379 655.903 305.016C654.671 306.653 654.056 308.841 654.056 311.58C654.056 314.119 654.691 316.257 655.96 317.994C657.23 319.73 658.959 320.599 661.147 320.599Z" fill="#ffffff" fill-rule="nonzero" opacity="1" stroke="none"/>
<path d="M696.925 323.513L692.61 323.513L685.886 313.92L679.208 323.513L674.894 323.513L683.729 311.098L675.49 299.6L679.919 299.6L685.886 308.137L691.945 299.6L696.03 299.6L688.043 311.006L696.925 323.513Z" fill="#ffffff" fill-rule="nonzero" opacity="1" stroke="none"/>
<path d="M709.776 320.323C709.776 321.333 709.424 322.178 708.721 322.859C708.017 323.54 707.168 323.88 706.173 323.88C705.148 323.88 704.295 323.54 703.614 322.859C702.934 322.178 702.593 321.333 702.593 320.323C702.593 319.313 702.934 318.468 703.614 317.787C704.295 317.107 705.148 316.766 706.173 316.766C707.168 316.766 708.017 317.107 708.721 317.787C709.424 318.468 709.776 319.313 709.776 320.323Z" fill="#ffffff" fill-rule="nonzero" opacity="1" stroke="none"/>
</g>
</g>
</svg>
